%TF.GenerationSoftware,KiCad,Pcbnew,(5.99.0-11414-g76a6177eb7)*%
%TF.CreationDate,2021-11-21T23:19:33+08:00*%
%TF.ProjectId,trackpoint,74726163-6b70-46f6-996e-742e6b696361,rev?*%
%TF.SameCoordinates,Original*%
%TF.FileFunction,Copper,L2,Bot*%
%TF.FilePolarity,Positive*%
%FSLAX46Y46*%
G04 Gerber Fmt 4.6, Leading zero omitted, Abs format (unit mm)*
G04 Created by KiCad (PCBNEW (5.99.0-11414-g76a6177eb7)) date 2021-11-21 23:19:33*
%MOMM*%
%LPD*%
G01*
G04 APERTURE LIST*
%TA.AperFunction,ComponentPad*%
%ADD10R,1.700000X1.700000*%
%TD*%
%TA.AperFunction,ComponentPad*%
%ADD11O,1.700000X1.700000*%
%TD*%
%TA.AperFunction,ViaPad*%
%ADD12C,0.800000*%
%TD*%
%TA.AperFunction,Conductor*%
%ADD13C,0.250000*%
%TD*%
%TA.AperFunction,Conductor*%
%ADD14C,0.500000*%
%TD*%
G04 APERTURE END LIST*
D10*
%TO.P,J3,1,Pin_1*%
%TO.N,D2*%
X125270000Y-78100000D03*
D11*
%TO.P,J3,2,Pin_2*%
%TO.N,D5*%
X125270000Y-75560000D03*
%TO.P,J3,3,Pin_3*%
%TO.N,PWR*%
X125270000Y-73020000D03*
%TO.P,J3,4,Pin_4*%
%TO.N,GND*%
X125270000Y-70480000D03*
%TD*%
D10*
%TO.P,J2,1,Pin_1*%
%TO.N,D2*%
X125270000Y-81770000D03*
D11*
%TO.P,J2,2,Pin_2*%
%TO.N,D5*%
X127810000Y-81770000D03*
%TO.P,J2,3,Pin_3*%
%TO.N,PWR*%
X130350000Y-81770000D03*
%TO.P,J2,4,Pin_4*%
%TO.N,GND*%
X132890000Y-81770000D03*
%TD*%
D12*
%TO.N,D5*%
X116870000Y-89890000D03*
X112880000Y-87080000D03*
X127910000Y-88900000D03*
%TO.N,D2*%
X115970000Y-82900000D03*
X109990000Y-82210000D03*
X113710000Y-82230000D03*
%TO.N,PWR*%
X106430000Y-86650000D03*
X114800000Y-78540000D03*
%TO.N,GND*%
X116890000Y-87770000D03*
%TO.N,RST*%
X119130000Y-84582500D03*
X114920000Y-84650000D03*
X110910000Y-80980000D03*
%TD*%
D13*
%TO.N,GND*%
X128810000Y-70400000D02*
X125350000Y-70400000D01*
X132890000Y-74480000D02*
X128810000Y-70400000D01*
X125350000Y-70400000D02*
X125270000Y-70480000D01*
X132890000Y-81770000D02*
X132890000Y-74480000D01*
D14*
%TO.N,PWR*%
X130350000Y-74820000D02*
X128550000Y-73020000D01*
X128550000Y-73020000D02*
X125270000Y-73020000D01*
X130350000Y-81770000D02*
X130350000Y-74820000D01*
D13*
%TO.N,D5*%
X126850000Y-75560000D02*
X125270000Y-75560000D01*
X127820000Y-76530000D02*
X126850000Y-75560000D01*
X127820000Y-81760000D02*
X127820000Y-76530000D01*
X127810000Y-81770000D02*
X127820000Y-81760000D01*
%TO.N,D2*%
X125270000Y-81770000D02*
X125270000Y-78100000D01*
%TO.N,D5*%
X127910000Y-81870000D02*
X127810000Y-81770000D01*
X127910000Y-88900000D02*
X127910000Y-81870000D01*
X112880000Y-87080000D02*
X112880000Y-89490000D01*
X113280000Y-89890000D02*
X116870000Y-89890000D01*
X112880000Y-89490000D02*
X113280000Y-89890000D01*
%TO.N,D2*%
X124140000Y-82900000D02*
X125270000Y-81770000D01*
X115970000Y-82900000D02*
X124140000Y-82900000D01*
X113690000Y-82210000D02*
X113710000Y-82230000D01*
X109990000Y-82210000D02*
X113690000Y-82210000D01*
D14*
%TO.N,PWR*%
X107680000Y-86650000D02*
X106430000Y-86650000D01*
X108610000Y-85720000D02*
X107680000Y-86650000D01*
X108610000Y-80170000D02*
X108610000Y-85720000D01*
X114010000Y-79330000D02*
X109450000Y-79330000D01*
X114800000Y-78540000D02*
X114010000Y-79330000D01*
X109450000Y-79330000D02*
X108610000Y-80170000D01*
D13*
%TO.N,GND*%
X131840000Y-88620000D02*
X131840000Y-82820000D01*
X130140000Y-90320000D02*
X131840000Y-88620000D01*
X119440000Y-90320000D02*
X130140000Y-90320000D01*
X116890000Y-87770000D02*
X119440000Y-90320000D01*
X131840000Y-82820000D02*
X132890000Y-81770000D01*
%TO.N,RST*%
X119062500Y-84650000D02*
X119130000Y-84582500D01*
X114920000Y-84650000D02*
X119062500Y-84650000D01*
X114920000Y-81800000D02*
X114920000Y-84650000D01*
X110910000Y-80980000D02*
X114100000Y-80980000D01*
X114100000Y-80980000D02*
X114920000Y-81800000D01*
%TD*%
%TA.AperFunction,Conductor*%
%TO.N,GND*%
G36*
X136774121Y-68278002D02*
G01*
X136820614Y-68331658D01*
X136832000Y-68384000D01*
X136832000Y-91726000D01*
X136811998Y-91794121D01*
X136758342Y-91840614D01*
X136706000Y-91852000D01*
X97894000Y-91852000D01*
X97825879Y-91831998D01*
X97779386Y-91778342D01*
X97768000Y-91726000D01*
X97768000Y-89410000D01*
X98256526Y-89410000D01*
X98276391Y-89662403D01*
X98277545Y-89667210D01*
X98277546Y-89667216D01*
X98302262Y-89770166D01*
X98335495Y-89908591D01*
X98337388Y-89913162D01*
X98337389Y-89913164D01*
X98403747Y-90073365D01*
X98432384Y-90142502D01*
X98564672Y-90358376D01*
X98729102Y-90550898D01*
X98921624Y-90715328D01*
X99137498Y-90847616D01*
X99142068Y-90849509D01*
X99142072Y-90849511D01*
X99366836Y-90942611D01*
X99371409Y-90944505D01*
X99444769Y-90962117D01*
X99612784Y-91002454D01*
X99612790Y-91002455D01*
X99617597Y-91003609D01*
X99870000Y-91023474D01*
X100122403Y-91003609D01*
X100127210Y-91002455D01*
X100127216Y-91002454D01*
X100295231Y-90962117D01*
X100368591Y-90944505D01*
X100373164Y-90942611D01*
X100597928Y-90849511D01*
X100597932Y-90849509D01*
X100602502Y-90847616D01*
X100818376Y-90715328D01*
X101010898Y-90550898D01*
X101175328Y-90358376D01*
X101307616Y-90142502D01*
X101336254Y-90073365D01*
X101402611Y-89913164D01*
X101402612Y-89913162D01*
X101404505Y-89908591D01*
X101437738Y-89770166D01*
X101462454Y-89667216D01*
X101462455Y-89667210D01*
X101463609Y-89662403D01*
X101483474Y-89410000D01*
X101463609Y-89157597D01*
X101448871Y-89096206D01*
X101409466Y-88932072D01*
X101404505Y-88911409D01*
X101323497Y-88715838D01*
X101309511Y-88682072D01*
X101309509Y-88682068D01*
X101307616Y-88677498D01*
X101175328Y-88461624D01*
X101010898Y-88269102D01*
X100818376Y-88104672D01*
X100602502Y-87972384D01*
X100597932Y-87970491D01*
X100597928Y-87970489D01*
X100373164Y-87877389D01*
X100373162Y-87877388D01*
X100368591Y-87875495D01*
X100283968Y-87855179D01*
X100127216Y-87817546D01*
X100127210Y-87817545D01*
X100122403Y-87816391D01*
X99870000Y-87796526D01*
X99617597Y-87816391D01*
X99612790Y-87817545D01*
X99612784Y-87817546D01*
X99456032Y-87855179D01*
X99371409Y-87875495D01*
X99366838Y-87877388D01*
X99366836Y-87877389D01*
X99142072Y-87970489D01*
X99142068Y-87970491D01*
X99137498Y-87972384D01*
X98921624Y-88104672D01*
X98729102Y-88269102D01*
X98564672Y-88461624D01*
X98432384Y-88677498D01*
X98430491Y-88682068D01*
X98430489Y-88682072D01*
X98416503Y-88715838D01*
X98335495Y-88911409D01*
X98330534Y-88932072D01*
X98291130Y-89096206D01*
X98276391Y-89157597D01*
X98256526Y-89410000D01*
X97768000Y-89410000D01*
X97768000Y-86650000D01*
X105516496Y-86650000D01*
X105536458Y-86839928D01*
X105595473Y-87021556D01*
X105690960Y-87186944D01*
X105695378Y-87191851D01*
X105695379Y-87191852D01*
X105786286Y-87292814D01*
X105818747Y-87328866D01*
X105871025Y-87366848D01*
X105967904Y-87437235D01*
X105973248Y-87441118D01*
X105979276Y-87443802D01*
X105979278Y-87443803D01*
X105996692Y-87451556D01*
X106147712Y-87518794D01*
X106241112Y-87538647D01*
X106328056Y-87557128D01*
X106328061Y-87557128D01*
X106334513Y-87558500D01*
X106525487Y-87558500D01*
X106531939Y-87557128D01*
X106531944Y-87557128D01*
X106618888Y-87538647D01*
X106712288Y-87518794D01*
X106863308Y-87451556D01*
X106880722Y-87443803D01*
X106880724Y-87443802D01*
X106886752Y-87441118D01*
X106892091Y-87437239D01*
X106892098Y-87437235D01*
X106898528Y-87432563D01*
X106972587Y-87408500D01*
X107612930Y-87408500D01*
X107631880Y-87409933D01*
X107646115Y-87412099D01*
X107646119Y-87412099D01*
X107653349Y-87413199D01*
X107660641Y-87412606D01*
X107660644Y-87412606D01*
X107706018Y-87408915D01*
X107716233Y-87408500D01*
X107724293Y-87408500D01*
X107737583Y-87406951D01*
X107752507Y-87405211D01*
X107756882Y-87404778D01*
X107822339Y-87399454D01*
X107822342Y-87399453D01*
X107829637Y-87398860D01*
X107836601Y-87396604D01*
X107842560Y-87395413D01*
X107848415Y-87394029D01*
X107855681Y-87393182D01*
X107924327Y-87368265D01*
X107928455Y-87366848D01*
X107990936Y-87346607D01*
X107990938Y-87346606D01*
X107997899Y-87344351D01*
X108004154Y-87340555D01*
X108009628Y-87338049D01*
X108015058Y-87335330D01*
X108021937Y-87332833D01*
X108082976Y-87292814D01*
X108086680Y-87290477D01*
X108149107Y-87252595D01*
X108157484Y-87245197D01*
X108157508Y-87245224D01*
X108160500Y-87242571D01*
X108163733Y-87239868D01*
X108169852Y-87235856D01*
X108223128Y-87179617D01*
X108225506Y-87177175D01*
X108322681Y-87080000D01*
X111966496Y-87080000D01*
X111967186Y-87086565D01*
X111984246Y-87248878D01*
X111986458Y-87269928D01*
X112045473Y-87451556D01*
X112140960Y-87616944D01*
X112214137Y-87698215D01*
X112244853Y-87762221D01*
X112246500Y-87782524D01*
X112246500Y-89411233D01*
X112245973Y-89422416D01*
X112244298Y-89429909D01*
X112244547Y-89437835D01*
X112244547Y-89437836D01*
X112246438Y-89497986D01*
X112246500Y-89501945D01*
X112246500Y-89529856D01*
X112246997Y-89533790D01*
X112246997Y-89533791D01*
X112247005Y-89533856D01*
X112247938Y-89545693D01*
X112249327Y-89589889D01*
X112254978Y-89609339D01*
X112258987Y-89628700D01*
X112261526Y-89648797D01*
X112264445Y-89656168D01*
X112264445Y-89656170D01*
X112277804Y-89689912D01*
X112281649Y-89701142D01*
X112293982Y-89743593D01*
X112298015Y-89750412D01*
X112298017Y-89750417D01*
X112304293Y-89761028D01*
X112312988Y-89778776D01*
X112320448Y-89797617D01*
X112325110Y-89804033D01*
X112325110Y-89804034D01*
X112346436Y-89833387D01*
X112352952Y-89843307D01*
X112375458Y-89881362D01*
X112389779Y-89895683D01*
X112402619Y-89910716D01*
X112414528Y-89927107D01*
X112420634Y-89932158D01*
X112448605Y-89955298D01*
X112457384Y-89963288D01*
X112776343Y-90282247D01*
X112783887Y-90290537D01*
X112788000Y-90297018D01*
X112793777Y-90302443D01*
X112837667Y-90343658D01*
X112840509Y-90346413D01*
X112860230Y-90366134D01*
X112863425Y-90368612D01*
X112872447Y-90376318D01*
X112904679Y-90406586D01*
X112911628Y-90410406D01*
X112922432Y-90416346D01*
X112938956Y-90427199D01*
X112954959Y-90439613D01*
X112995543Y-90457176D01*
X113006173Y-90462383D01*
X113044940Y-90483695D01*
X113052617Y-90485666D01*
X113052622Y-90485668D01*
X113064558Y-90488732D01*
X113083266Y-90495137D01*
X113101855Y-90503181D01*
X113109680Y-90504420D01*
X113109682Y-90504421D01*
X113145519Y-90510097D01*
X113157140Y-90512504D01*
X113192289Y-90521528D01*
X113199970Y-90523500D01*
X113220231Y-90523500D01*
X113239940Y-90525051D01*
X113259943Y-90528219D01*
X113267835Y-90527473D01*
X113273062Y-90526979D01*
X113303954Y-90524059D01*
X113315811Y-90523500D01*
X116161800Y-90523500D01*
X116229921Y-90543502D01*
X116249147Y-90559843D01*
X116249420Y-90559540D01*
X116254332Y-90563963D01*
X116258747Y-90568866D01*
X116413248Y-90681118D01*
X116419276Y-90683802D01*
X116419278Y-90683803D01*
X116581681Y-90756109D01*
X116587712Y-90758794D01*
X116681113Y-90778647D01*
X116768056Y-90797128D01*
X116768061Y-90797128D01*
X116774513Y-90798500D01*
X116965487Y-90798500D01*
X116971939Y-90797128D01*
X116971944Y-90797128D01*
X117058887Y-90778647D01*
X117152288Y-90758794D01*
X117158319Y-90756109D01*
X117320722Y-90683803D01*
X117320724Y-90683802D01*
X117326752Y-90681118D01*
X117481253Y-90568866D01*
X117494543Y-90554106D01*
X117604621Y-90431852D01*
X117604622Y-90431851D01*
X117609040Y-90426944D01*
X117684053Y-90297018D01*
X117701223Y-90267279D01*
X117701224Y-90267278D01*
X117704527Y-90261556D01*
X117763542Y-90079928D01*
X117783504Y-89890000D01*
X117769949Y-89761028D01*
X117764232Y-89706635D01*
X117764232Y-89706633D01*
X117763542Y-89700072D01*
X117704527Y-89518444D01*
X117609040Y-89353056D01*
X117481253Y-89211134D01*
X117326752Y-89098882D01*
X117320724Y-89096198D01*
X117320722Y-89096197D01*
X117158319Y-89023891D01*
X117158318Y-89023891D01*
X117152288Y-89021206D01*
X117058888Y-89001353D01*
X116971944Y-88982872D01*
X116971939Y-88982872D01*
X116965487Y-88981500D01*
X116774513Y-88981500D01*
X116768061Y-88982872D01*
X116768056Y-88982872D01*
X116681112Y-89001353D01*
X116587712Y-89021206D01*
X116581682Y-89023891D01*
X116581681Y-89023891D01*
X116419278Y-89096197D01*
X116419276Y-89096198D01*
X116413248Y-89098882D01*
X116407907Y-89102762D01*
X116407906Y-89102763D01*
X116333481Y-89156836D01*
X116258747Y-89211134D01*
X116254332Y-89216037D01*
X116249420Y-89220460D01*
X116248295Y-89219211D01*
X116194986Y-89252051D01*
X116161800Y-89256500D01*
X113639500Y-89256500D01*
X113571379Y-89236498D01*
X113524886Y-89182842D01*
X113513500Y-89130500D01*
X113513500Y-87782524D01*
X113533502Y-87714403D01*
X113545858Y-87698221D01*
X113619040Y-87616944D01*
X113714527Y-87451556D01*
X113773542Y-87269928D01*
X113775755Y-87248878D01*
X113792814Y-87086565D01*
X113793504Y-87080000D01*
X113773542Y-86890072D01*
X113714527Y-86708444D01*
X113619040Y-86543056D01*
X113491253Y-86401134D01*
X113392157Y-86329136D01*
X113342094Y-86292763D01*
X113342093Y-86292762D01*
X113336752Y-86288882D01*
X113330724Y-86286198D01*
X113330722Y-86286197D01*
X113168319Y-86213891D01*
X113168318Y-86213891D01*
X113162288Y-86211206D01*
X113068887Y-86191353D01*
X112981944Y-86172872D01*
X112981939Y-86172872D01*
X112975487Y-86171500D01*
X112784513Y-86171500D01*
X112778061Y-86172872D01*
X112778056Y-86172872D01*
X112691113Y-86191353D01*
X112597712Y-86211206D01*
X112591682Y-86213891D01*
X112591681Y-86213891D01*
X112429278Y-86286197D01*
X112429276Y-86286198D01*
X112423248Y-86288882D01*
X112417907Y-86292762D01*
X112417906Y-86292763D01*
X112367843Y-86329136D01*
X112268747Y-86401134D01*
X112140960Y-86543056D01*
X112045473Y-86708444D01*
X111986458Y-86890072D01*
X111966496Y-87080000D01*
X108322681Y-87080000D01*
X109098911Y-86303770D01*
X109113323Y-86291384D01*
X109124918Y-86282851D01*
X109124923Y-86282846D01*
X109130818Y-86278508D01*
X109135557Y-86272930D01*
X109135560Y-86272927D01*
X109165035Y-86238232D01*
X109171965Y-86230716D01*
X109177661Y-86225020D01*
X109179924Y-86222159D01*
X109179929Y-86222154D01*
X109195285Y-86202744D01*
X109198074Y-86199342D01*
X109240596Y-86149291D01*
X109240597Y-86149290D01*
X109245333Y-86143715D01*
X109248661Y-86137198D01*
X109252027Y-86132150D01*
X109255190Y-86127028D01*
X109259735Y-86121284D01*
X109290664Y-86055105D01*
X109292563Y-86051221D01*
X109325769Y-85986192D01*
X109327510Y-85979077D01*
X109329613Y-85973422D01*
X109331522Y-85967683D01*
X109334622Y-85961050D01*
X109349491Y-85889565D01*
X109350461Y-85885282D01*
X109367808Y-85814390D01*
X109368500Y-85803236D01*
X109368535Y-85803238D01*
X109368775Y-85799266D01*
X109369152Y-85795045D01*
X109370641Y-85787885D01*
X109368546Y-85710458D01*
X109368500Y-85707050D01*
X109368500Y-83121791D01*
X109388502Y-83053670D01*
X109442158Y-83007177D01*
X109512432Y-82997073D01*
X109545748Y-83006684D01*
X109701677Y-83076108D01*
X109701685Y-83076111D01*
X109707712Y-83078794D01*
X109801113Y-83098647D01*
X109888056Y-83117128D01*
X109888061Y-83117128D01*
X109894513Y-83118500D01*
X110085487Y-83118500D01*
X110091939Y-83117128D01*
X110091944Y-83117128D01*
X110178887Y-83098647D01*
X110272288Y-83078794D01*
X110278321Y-83076108D01*
X110440722Y-83003803D01*
X110440724Y-83003802D01*
X110446752Y-83001118D01*
X110452320Y-82997073D01*
X110595914Y-82892745D01*
X110601253Y-82888866D01*
X110605668Y-82883963D01*
X110610580Y-82879540D01*
X110611705Y-82880789D01*
X110665014Y-82847949D01*
X110698200Y-82843500D01*
X112983792Y-82843500D01*
X113051913Y-82863502D01*
X113077428Y-82885189D01*
X113084232Y-82892745D01*
X113098747Y-82908866D01*
X113104086Y-82912745D01*
X113226164Y-83001440D01*
X113253248Y-83021118D01*
X113259276Y-83023802D01*
X113259278Y-83023803D01*
X113421681Y-83096109D01*
X113427712Y-83098794D01*
X113513966Y-83117128D01*
X113608056Y-83137128D01*
X113608061Y-83137128D01*
X113614513Y-83138500D01*
X113805487Y-83138500D01*
X113811939Y-83137128D01*
X113811944Y-83137128D01*
X113906034Y-83117128D01*
X113992288Y-83098794D01*
X114012393Y-83089843D01*
X114109251Y-83046719D01*
X114179618Y-83037285D01*
X114243915Y-83067392D01*
X114281729Y-83127480D01*
X114286500Y-83161826D01*
X114286500Y-83947476D01*
X114266498Y-84015597D01*
X114254142Y-84031779D01*
X114180960Y-84113056D01*
X114085473Y-84278444D01*
X114026458Y-84460072D01*
X114006496Y-84650000D01*
X114007186Y-84656565D01*
X114019364Y-84772428D01*
X114026458Y-84839928D01*
X114085473Y-85021556D01*
X114180960Y-85186944D01*
X114185378Y-85191851D01*
X114185379Y-85191852D01*
X114300350Y-85319540D01*
X114308747Y-85328866D01*
X114463248Y-85441118D01*
X114469276Y-85443802D01*
X114469278Y-85443803D01*
X114575285Y-85491000D01*
X114637712Y-85518794D01*
X114731112Y-85538647D01*
X114818056Y-85557128D01*
X114818061Y-85557128D01*
X114824513Y-85558500D01*
X115015487Y-85558500D01*
X115021939Y-85557128D01*
X115021944Y-85557128D01*
X115108888Y-85538647D01*
X115202288Y-85518794D01*
X115264715Y-85491000D01*
X115370722Y-85443803D01*
X115370724Y-85443802D01*
X115376752Y-85441118D01*
X115531253Y-85328866D01*
X115535668Y-85323963D01*
X115540580Y-85319540D01*
X115541705Y-85320789D01*
X115595014Y-85287949D01*
X115628200Y-85283500D01*
X118508272Y-85283500D01*
X118576393Y-85303502D01*
X118582333Y-85307564D01*
X118645736Y-85353629D01*
X118673248Y-85373618D01*
X118679276Y-85376302D01*
X118679278Y-85376303D01*
X118841681Y-85448609D01*
X118847712Y-85451294D01*
X118941112Y-85471147D01*
X119028056Y-85489628D01*
X119028061Y-85489628D01*
X119034513Y-85491000D01*
X119225487Y-85491000D01*
X119231939Y-85489628D01*
X119231944Y-85489628D01*
X119318888Y-85471147D01*
X119412288Y-85451294D01*
X119418319Y-85448609D01*
X119580722Y-85376303D01*
X119580724Y-85376302D01*
X119586752Y-85373618D01*
X119614265Y-85353629D01*
X119655107Y-85323955D01*
X119741253Y-85261366D01*
X119869040Y-85119444D01*
X119964527Y-84954056D01*
X120023542Y-84772428D01*
X120043504Y-84582500D01*
X120031326Y-84466635D01*
X120024232Y-84399135D01*
X120024232Y-84399133D01*
X120023542Y-84392572D01*
X119964527Y-84210944D01*
X119869040Y-84045556D01*
X119856643Y-84031787D01*
X119745675Y-83908545D01*
X119745674Y-83908544D01*
X119741253Y-83903634D01*
X119586752Y-83791382D01*
X119580724Y-83788698D01*
X119580722Y-83788697D01*
X119549075Y-83774607D01*
X119494979Y-83728626D01*
X119474330Y-83660699D01*
X119493683Y-83592391D01*
X119546893Y-83545390D01*
X119600324Y-83533500D01*
X124061233Y-83533500D01*
X124072416Y-83534027D01*
X124079909Y-83535702D01*
X124087835Y-83535453D01*
X124087836Y-83535453D01*
X124147986Y-83533562D01*
X124151945Y-83533500D01*
X124179856Y-83533500D01*
X124183791Y-83533003D01*
X124183856Y-83532995D01*
X124195693Y-83532062D01*
X124227951Y-83531048D01*
X124231970Y-83530922D01*
X124239889Y-83530673D01*
X124259343Y-83525021D01*
X124278700Y-83521013D01*
X124290930Y-83519468D01*
X124290931Y-83519468D01*
X124298797Y-83518474D01*
X124306168Y-83515555D01*
X124306170Y-83515555D01*
X124339912Y-83502196D01*
X124351142Y-83498351D01*
X124385983Y-83488229D01*
X124385984Y-83488229D01*
X124393593Y-83486018D01*
X124400412Y-83481985D01*
X124400417Y-83481983D01*
X124411028Y-83475707D01*
X124428776Y-83467012D01*
X124447617Y-83459552D01*
X124483387Y-83433564D01*
X124493307Y-83427048D01*
X124524535Y-83408580D01*
X124524538Y-83408578D01*
X124531362Y-83404542D01*
X124545683Y-83390221D01*
X124560717Y-83377380D01*
X124570694Y-83370131D01*
X124577107Y-83365472D01*
X124605298Y-83331395D01*
X124613288Y-83322616D01*
X124765270Y-83170634D01*
X124827582Y-83136608D01*
X124854365Y-83133729D01*
X126120000Y-83133729D01*
X126156800Y-83131097D01*
X126186373Y-83128982D01*
X126186374Y-83128982D01*
X126193111Y-83128500D01*
X126272618Y-83105155D01*
X126324765Y-83089843D01*
X126324767Y-83089842D01*
X126333411Y-83087304D01*
X126372730Y-83062035D01*
X126448841Y-83013122D01*
X126448844Y-83013120D01*
X126456421Y-83008250D01*
X126539177Y-82912745D01*
X126546274Y-82904555D01*
X126546276Y-82904552D01*
X126552176Y-82897743D01*
X126612919Y-82764734D01*
X126613810Y-82758535D01*
X126651442Y-82699977D01*
X126716022Y-82670483D01*
X126786296Y-82680586D01*
X126829192Y-82712701D01*
X126856250Y-82743938D01*
X127028126Y-82886632D01*
X127214071Y-82995289D01*
X127262794Y-83046926D01*
X127276500Y-83104076D01*
X127276500Y-88197476D01*
X127256498Y-88265597D01*
X127244142Y-88281779D01*
X127170960Y-88363056D01*
X127167659Y-88368774D01*
X127080867Y-88519102D01*
X127075473Y-88528444D01*
X127016458Y-88710072D01*
X126996496Y-88900000D01*
X127016458Y-89089928D01*
X127075473Y-89271556D01*
X127170960Y-89436944D01*
X127298747Y-89578866D01*
X127453248Y-89691118D01*
X127459276Y-89693802D01*
X127459278Y-89693803D01*
X127571109Y-89743593D01*
X127627712Y-89768794D01*
X127721112Y-89788647D01*
X127808056Y-89807128D01*
X127808061Y-89807128D01*
X127814513Y-89808500D01*
X128005487Y-89808500D01*
X128011939Y-89807128D01*
X128011944Y-89807128D01*
X128098887Y-89788647D01*
X128192288Y-89768794D01*
X128248891Y-89743593D01*
X128360722Y-89693803D01*
X128360724Y-89693802D01*
X128366752Y-89691118D01*
X128409582Y-89660000D01*
X133036526Y-89660000D01*
X133056391Y-89912403D01*
X133057545Y-89917210D01*
X133057546Y-89917216D01*
X133066689Y-89955298D01*
X133115495Y-90158591D01*
X133117388Y-90163162D01*
X133117389Y-90163164D01*
X133199806Y-90362135D01*
X133212384Y-90392502D01*
X133344672Y-90608376D01*
X133509102Y-90800898D01*
X133701624Y-90965328D01*
X133917498Y-91097616D01*
X133922068Y-91099509D01*
X133922072Y-91099511D01*
X134146836Y-91192611D01*
X134151409Y-91194505D01*
X134236032Y-91214821D01*
X134392784Y-91252454D01*
X134392790Y-91252455D01*
X134397597Y-91253609D01*
X134650000Y-91273474D01*
X134902403Y-91253609D01*
X134907210Y-91252455D01*
X134907216Y-91252454D01*
X135063968Y-91214821D01*
X135148591Y-91194505D01*
X135153164Y-91192611D01*
X135377928Y-91099511D01*
X135377932Y-91099509D01*
X135382502Y-91097616D01*
X135598376Y-90965328D01*
X135790898Y-90800898D01*
X135955328Y-90608376D01*
X136087616Y-90392502D01*
X136100195Y-90362135D01*
X136182611Y-90163164D01*
X136182612Y-90163162D01*
X136184505Y-90158591D01*
X136233311Y-89955298D01*
X136242454Y-89917216D01*
X136242455Y-89917210D01*
X136243609Y-89912403D01*
X136263474Y-89660000D01*
X136243609Y-89407597D01*
X136184505Y-89161409D01*
X136182611Y-89156836D01*
X136089511Y-88932072D01*
X136089509Y-88932068D01*
X136087616Y-88927498D01*
X135955328Y-88711624D01*
X135790898Y-88519102D01*
X135598376Y-88354672D01*
X135382502Y-88222384D01*
X135377932Y-88220491D01*
X135377928Y-88220489D01*
X135153164Y-88127389D01*
X135153162Y-88127388D01*
X135148591Y-88125495D01*
X135051101Y-88102090D01*
X134907216Y-88067546D01*
X134907210Y-88067545D01*
X134902403Y-88066391D01*
X134650000Y-88046526D01*
X134397597Y-88066391D01*
X134392790Y-88067545D01*
X134392784Y-88067546D01*
X134248899Y-88102090D01*
X134151409Y-88125495D01*
X134146838Y-88127388D01*
X134146836Y-88127389D01*
X133922072Y-88220489D01*
X133922068Y-88220491D01*
X133917498Y-88222384D01*
X133701624Y-88354672D01*
X133509102Y-88519102D01*
X133344672Y-88711624D01*
X133212384Y-88927498D01*
X133210491Y-88932068D01*
X133210489Y-88932072D01*
X133117389Y-89156836D01*
X133115495Y-89161409D01*
X133056391Y-89407597D01*
X133036526Y-89660000D01*
X128409582Y-89660000D01*
X128521253Y-89578866D01*
X128649040Y-89436944D01*
X128744527Y-89271556D01*
X128803542Y-89089928D01*
X128823504Y-88900000D01*
X128803542Y-88710072D01*
X128744527Y-88528444D01*
X128739134Y-88519102D01*
X128652341Y-88368774D01*
X128649040Y-88363056D01*
X128575863Y-88281785D01*
X128545147Y-88217779D01*
X128543500Y-88197476D01*
X128543500Y-82980465D01*
X128563502Y-82912344D01*
X128596331Y-82877887D01*
X128685654Y-82814173D01*
X128689860Y-82811173D01*
X128848096Y-82653489D01*
X128978453Y-82472077D01*
X128979776Y-82473028D01*
X129026645Y-82429857D01*
X129096580Y-82417625D01*
X129162026Y-82445144D01*
X129189875Y-82476994D01*
X129249987Y-82575088D01*
X129396250Y-82743938D01*
X129568126Y-82886632D01*
X129761000Y-82999338D01*
X129765825Y-83001180D01*
X129765826Y-83001181D01*
X129807873Y-83017237D01*
X129969692Y-83079030D01*
X129974760Y-83080061D01*
X129974763Y-83080062D01*
X130069862Y-83099410D01*
X130188597Y-83123567D01*
X130193772Y-83123757D01*
X130193774Y-83123757D01*
X130406673Y-83131564D01*
X130406677Y-83131564D01*
X130411837Y-83131753D01*
X130416957Y-83131097D01*
X130416959Y-83131097D01*
X130628288Y-83104025D01*
X130628289Y-83104025D01*
X130633416Y-83103368D01*
X130638366Y-83101883D01*
X130842429Y-83040661D01*
X130842434Y-83040659D01*
X130847384Y-83039174D01*
X131047994Y-82940896D01*
X131229860Y-82811173D01*
X131388096Y-82653489D01*
X131518453Y-82472077D01*
X131519640Y-82472930D01*
X131566960Y-82429362D01*
X131636897Y-82417145D01*
X131702338Y-82444678D01*
X131730166Y-82476511D01*
X131787694Y-82570388D01*
X131793777Y-82578699D01*
X131933213Y-82739667D01*
X131940580Y-82746883D01*
X132104434Y-82882916D01*
X132112881Y-82888831D01*
X132296756Y-82996279D01*
X132306042Y-83000729D01*
X132505001Y-83076703D01*
X132514899Y-83079579D01*
X132618250Y-83100606D01*
X132632299Y-83099410D01*
X132636000Y-83089065D01*
X132636000Y-82037548D01*
X133144000Y-82037548D01*
X133144000Y-83088517D01*
X133148064Y-83102359D01*
X133161478Y-83104393D01*
X133168184Y-83103534D01*
X133178262Y-83101392D01*
X133382255Y-83040191D01*
X133391842Y-83036433D01*
X133583095Y-82942739D01*
X133591945Y-82937464D01*
X133765328Y-82813792D01*
X133773200Y-82807139D01*
X133924052Y-82656812D01*
X133930730Y-82648965D01*
X134055003Y-82476020D01*
X134060313Y-82467183D01*
X134154670Y-82276267D01*
X134158469Y-82266672D01*
X134220377Y-82062910D01*
X134222555Y-82052837D01*
X134223986Y-82041962D01*
X134221775Y-82027778D01*
X134208617Y-82024000D01*
X133162115Y-82024000D01*
X133146876Y-82028475D01*
X133145671Y-82029865D01*
X133144000Y-82037548D01*
X132636000Y-82037548D01*
X132636000Y-80454989D01*
X133144000Y-80454989D01*
X133144000Y-81497885D01*
X133148475Y-81513124D01*
X133149865Y-81514329D01*
X133157548Y-81516000D01*
X134208344Y-81516000D01*
X134221875Y-81512027D01*
X134223180Y-81502947D01*
X134181214Y-81335875D01*
X134177894Y-81326124D01*
X134092972Y-81130814D01*
X134088105Y-81121739D01*
X133972426Y-80942926D01*
X133966136Y-80934757D01*
X133822806Y-80777240D01*
X133815273Y-80770215D01*
X133648139Y-80638222D01*
X133639552Y-80632517D01*
X133453117Y-80529599D01*
X133443705Y-80525369D01*
X133242959Y-80454280D01*
X133232988Y-80451646D01*
X133161837Y-80438972D01*
X133148540Y-80440432D01*
X133144000Y-80454989D01*
X132636000Y-80454989D01*
X132636000Y-80453102D01*
X132632082Y-80439758D01*
X132617806Y-80437771D01*
X132579324Y-80443660D01*
X132569288Y-80446051D01*
X132366868Y-80512212D01*
X132357359Y-80516209D01*
X132168463Y-80614542D01*
X132159738Y-80620036D01*
X131989433Y-80747905D01*
X131981726Y-80754748D01*
X131834590Y-80908717D01*
X131828109Y-80916722D01*
X131723498Y-81070074D01*
X131668587Y-81115076D01*
X131598062Y-81123247D01*
X131534315Y-81091993D01*
X131513618Y-81067509D01*
X131432822Y-80942617D01*
X131432820Y-80942614D01*
X131430014Y-80938277D01*
X131279670Y-80773051D01*
X131275615Y-80769848D01*
X131156407Y-80675703D01*
X131115345Y-80617785D01*
X131108500Y-80576821D01*
X131108500Y-74887063D01*
X131109933Y-74868114D01*
X131112097Y-74853886D01*
X131113198Y-74846651D01*
X131108915Y-74793990D01*
X131108500Y-74783777D01*
X131108500Y-74775707D01*
X131108078Y-74772087D01*
X131108077Y-74772069D01*
X131105208Y-74747461D01*
X131104775Y-74743086D01*
X131099454Y-74677661D01*
X131099453Y-74677658D01*
X131098860Y-74670363D01*
X131096604Y-74663399D01*
X131095413Y-74657440D01*
X131094029Y-74651585D01*
X131093182Y-74644319D01*
X131068265Y-74575673D01*
X131066848Y-74571545D01*
X131046607Y-74509064D01*
X131046606Y-74509062D01*
X131044351Y-74502101D01*
X131040555Y-74495846D01*
X131038049Y-74490372D01*
X131035330Y-74484942D01*
X131032833Y-74478063D01*
X130992809Y-74417016D01*
X130990472Y-74413312D01*
X130955509Y-74355693D01*
X130955505Y-74355688D01*
X130952595Y-74350892D01*
X130945197Y-74342516D01*
X130945223Y-74342493D01*
X130942574Y-74339503D01*
X130939866Y-74336264D01*
X130935856Y-74330148D01*
X130930549Y-74325121D01*
X130930546Y-74325117D01*
X130879617Y-74276872D01*
X130877175Y-74274494D01*
X129133770Y-72531089D01*
X129121384Y-72516677D01*
X129112851Y-72505082D01*
X129112846Y-72505077D01*
X129108508Y-72499182D01*
X129102930Y-72494443D01*
X129102927Y-72494440D01*
X129068232Y-72464965D01*
X129060716Y-72458035D01*
X129055021Y-72452340D01*
X129048880Y-72447482D01*
X129032749Y-72434719D01*
X129029345Y-72431928D01*
X128979297Y-72389409D01*
X128979295Y-72389408D01*
X128973715Y-72384667D01*
X128967199Y-72381339D01*
X128962150Y-72377972D01*
X128957021Y-72374805D01*
X128951284Y-72370266D01*
X128885125Y-72339345D01*
X128881225Y-72337439D01*
X128816192Y-72304231D01*
X128809084Y-72302492D01*
X128803441Y-72300393D01*
X128797678Y-72298476D01*
X128791050Y-72295378D01*
X128719583Y-72280513D01*
X128715299Y-72279543D01*
X128644390Y-72262192D01*
X128638788Y-72261844D01*
X128638785Y-72261844D01*
X128633236Y-72261500D01*
X128633238Y-72261464D01*
X128629245Y-72261225D01*
X128625053Y-72260851D01*
X128617885Y-72259360D01*
X128551675Y-72261151D01*
X128540479Y-72261454D01*
X128537072Y-72261500D01*
X126465939Y-72261500D01*
X126397818Y-72241498D01*
X126360147Y-72203941D01*
X126352818Y-72192612D01*
X126350014Y-72188277D01*
X126199670Y-72023051D01*
X126195619Y-72019852D01*
X126195615Y-72019848D01*
X126028414Y-71887800D01*
X126028410Y-71887798D01*
X126024359Y-71884598D01*
X125982569Y-71861529D01*
X125932598Y-71811097D01*
X125917826Y-71741654D01*
X125942942Y-71675248D01*
X125970294Y-71648641D01*
X126145328Y-71523792D01*
X126153200Y-71517139D01*
X126304052Y-71366812D01*
X126310730Y-71358965D01*
X126435003Y-71186020D01*
X126440313Y-71177183D01*
X126534670Y-70986267D01*
X126538469Y-70976672D01*
X126600377Y-70772910D01*
X126602555Y-70762837D01*
X126603986Y-70751962D01*
X126601775Y-70737778D01*
X126588617Y-70734000D01*
X123953225Y-70734000D01*
X123939694Y-70737973D01*
X123938257Y-70747966D01*
X123968565Y-70882446D01*
X123971645Y-70892275D01*
X124051770Y-71089603D01*
X124056413Y-71098794D01*
X124167694Y-71280388D01*
X124173777Y-71288699D01*
X124313213Y-71449667D01*
X124320580Y-71456883D01*
X124484434Y-71592916D01*
X124492881Y-71598831D01*
X124561969Y-71639203D01*
X124610693Y-71690842D01*
X124623764Y-71760625D01*
X124597033Y-71826396D01*
X124556584Y-71859752D01*
X124543607Y-71866507D01*
X124539474Y-71869610D01*
X124539471Y-71869612D01*
X124515247Y-71887800D01*
X124364965Y-72000635D01*
X124210629Y-72162138D01*
X124084743Y-72346680D01*
X124073795Y-72370266D01*
X123999144Y-72531089D01*
X123990688Y-72549305D01*
X123930989Y-72764570D01*
X123907251Y-72986695D01*
X123920110Y-73209715D01*
X123921247Y-73214761D01*
X123921248Y-73214767D01*
X123945304Y-73321508D01*
X123969222Y-73427639D01*
X124053266Y-73634616D01*
X124169987Y-73825088D01*
X124316250Y-73993938D01*
X124488126Y-74136632D01*
X124558595Y-74177811D01*
X124561445Y-74179476D01*
X124610169Y-74231114D01*
X124623240Y-74300897D01*
X124596509Y-74366669D01*
X124556055Y-74400027D01*
X124543607Y-74406507D01*
X124539474Y-74409610D01*
X124539471Y-74409612D01*
X124369100Y-74537530D01*
X124364965Y-74540635D01*
X124210629Y-74702138D01*
X124084743Y-74886680D01*
X124046011Y-74970121D01*
X124009471Y-75048841D01*
X123990688Y-75089305D01*
X123930989Y-75304570D01*
X123907251Y-75526695D01*
X123920110Y-75749715D01*
X123921247Y-75754761D01*
X123921248Y-75754767D01*
X123945304Y-75861508D01*
X123969222Y-75967639D01*
X124008639Y-76064712D01*
X124038657Y-76138637D01*
X124053266Y-76174616D01*
X124082538Y-76222383D01*
X124148545Y-76330097D01*
X124169987Y-76365088D01*
X124316250Y-76533938D01*
X124326860Y-76542747D01*
X124366497Y-76601645D01*
X124367999Y-76672626D01*
X124330887Y-76733151D01*
X124281878Y-76760589D01*
X124206589Y-76782696D01*
X124199010Y-76787567D01*
X124091159Y-76856878D01*
X124091156Y-76856880D01*
X124083579Y-76861750D01*
X124077678Y-76868560D01*
X123993726Y-76965445D01*
X123993724Y-76965448D01*
X123987824Y-76972257D01*
X123927081Y-77105266D01*
X123906271Y-77250000D01*
X123906271Y-78950000D01*
X123911500Y-79023111D01*
X123952696Y-79163411D01*
X123957567Y-79170990D01*
X124026878Y-79278841D01*
X124026880Y-79278844D01*
X124031750Y-79286421D01*
X124038560Y-79292322D01*
X124135445Y-79376274D01*
X124135448Y-79376276D01*
X124142257Y-79382176D01*
X124275266Y-79442919D01*
X124420000Y-79463729D01*
X124510500Y-79463729D01*
X124578621Y-79483731D01*
X124625114Y-79537387D01*
X124636500Y-79589729D01*
X124636500Y-80280271D01*
X124616498Y-80348392D01*
X124562842Y-80394885D01*
X124510500Y-80406271D01*
X124420000Y-80406271D01*
X124388014Y-80408559D01*
X124353627Y-80411018D01*
X124353626Y-80411018D01*
X124346889Y-80411500D01*
X124267382Y-80434845D01*
X124215235Y-80450157D01*
X124215233Y-80450158D01*
X124206589Y-80452696D01*
X124199010Y-80457567D01*
X124091159Y-80526878D01*
X124091156Y-80526880D01*
X124083579Y-80531750D01*
X124077678Y-80538560D01*
X123993726Y-80635445D01*
X123993724Y-80635448D01*
X123987824Y-80642257D01*
X123927081Y-80775266D01*
X123906271Y-80920000D01*
X123906271Y-82140500D01*
X123886269Y-82208621D01*
X123832613Y-82255114D01*
X123780271Y-82266500D01*
X116678200Y-82266500D01*
X116610079Y-82246498D01*
X116590853Y-82230157D01*
X116590580Y-82230460D01*
X116585668Y-82226037D01*
X116581253Y-82221134D01*
X116426752Y-82108882D01*
X116420724Y-82106198D01*
X116420722Y-82106197D01*
X116258319Y-82033891D01*
X116258318Y-82033891D01*
X116252288Y-82031206D01*
X116158888Y-82011353D01*
X116071944Y-81992872D01*
X116071939Y-81992872D01*
X116065487Y-81991500D01*
X115874513Y-81991500D01*
X115868061Y-81992872D01*
X115868056Y-81992872D01*
X115705697Y-82027383D01*
X115634906Y-82021981D01*
X115578274Y-81979164D01*
X115553780Y-81912526D01*
X115553500Y-81904136D01*
X115553500Y-81878767D01*
X115554027Y-81867584D01*
X115555702Y-81860091D01*
X115553562Y-81792014D01*
X115553500Y-81788055D01*
X115553500Y-81760144D01*
X115552995Y-81756144D01*
X115552062Y-81744301D01*
X115550922Y-81708029D01*
X115550673Y-81700110D01*
X115545022Y-81680658D01*
X115541014Y-81661306D01*
X115539467Y-81649063D01*
X115538474Y-81641203D01*
X115535556Y-81633832D01*
X115522200Y-81600097D01*
X115518355Y-81588870D01*
X115517721Y-81586687D01*
X115506018Y-81546407D01*
X115496986Y-81531134D01*
X115495707Y-81528972D01*
X115487012Y-81511224D01*
X115479552Y-81492383D01*
X115453564Y-81456613D01*
X115447048Y-81446693D01*
X115428580Y-81415465D01*
X115428578Y-81415462D01*
X115424542Y-81408638D01*
X115410221Y-81394317D01*
X115397380Y-81379283D01*
X115390131Y-81369306D01*
X115385472Y-81362893D01*
X115379367Y-81357842D01*
X115379362Y-81357837D01*
X115351396Y-81334701D01*
X115342618Y-81326713D01*
X114603652Y-80587747D01*
X114596112Y-80579461D01*
X114592000Y-80572982D01*
X114572433Y-80554607D01*
X114542349Y-80526357D01*
X114539507Y-80523602D01*
X114519770Y-80503865D01*
X114516573Y-80501385D01*
X114507551Y-80493680D01*
X114481100Y-80468841D01*
X114475321Y-80463414D01*
X114468375Y-80459595D01*
X114468372Y-80459593D01*
X114457566Y-80453652D01*
X114441047Y-80442801D01*
X114434562Y-80437771D01*
X114425041Y-80430386D01*
X114417772Y-80427241D01*
X114417768Y-80427238D01*
X114384463Y-80412826D01*
X114373813Y-80407609D01*
X114335060Y-80386305D01*
X114315437Y-80381267D01*
X114296734Y-80374863D01*
X114285420Y-80369967D01*
X114285419Y-80369967D01*
X114278145Y-80366819D01*
X114270322Y-80365580D01*
X114270312Y-80365577D01*
X114234476Y-80359901D01*
X114222856Y-80357495D01*
X114187711Y-80348472D01*
X114187710Y-80348472D01*
X114180030Y-80346500D01*
X114159776Y-80346500D01*
X114140065Y-80344949D01*
X114127886Y-80343020D01*
X114120057Y-80341780D01*
X114112165Y-80342526D01*
X114076039Y-80345941D01*
X114064181Y-80346500D01*
X111618200Y-80346500D01*
X111550079Y-80326498D01*
X111530852Y-80310156D01*
X111530579Y-80310460D01*
X111527999Y-80308137D01*
X111527474Y-80307284D01*
X111524566Y-80304813D01*
X111521255Y-80301136D01*
X111522818Y-80299728D01*
X111490759Y-80247691D01*
X111492110Y-80176708D01*
X111531624Y-80117723D01*
X111596754Y-80089464D01*
X111612309Y-80088500D01*
X113942930Y-80088500D01*
X113961880Y-80089933D01*
X113976115Y-80092099D01*
X113976119Y-80092099D01*
X113983349Y-80093199D01*
X113990641Y-80092606D01*
X113990644Y-80092606D01*
X114036018Y-80088915D01*
X114046233Y-80088500D01*
X114054293Y-80088500D01*
X114069201Y-80086762D01*
X114082507Y-80085211D01*
X114086882Y-80084778D01*
X114152339Y-80079454D01*
X114152342Y-80079453D01*
X114159637Y-80078860D01*
X114166601Y-80076604D01*
X114172560Y-80075413D01*
X114178415Y-80074029D01*
X114185681Y-80073182D01*
X114254327Y-80048265D01*
X114258455Y-80046848D01*
X114320936Y-80026607D01*
X114320938Y-80026606D01*
X114327899Y-80024351D01*
X114334154Y-80020555D01*
X114339628Y-80018049D01*
X114345058Y-80015330D01*
X114351937Y-80012833D01*
X114412976Y-79972814D01*
X114416680Y-79970477D01*
X114479107Y-79932595D01*
X114487484Y-79925197D01*
X114487508Y-79925224D01*
X114490500Y-79922571D01*
X114493733Y-79919868D01*
X114499852Y-79915856D01*
X114553128Y-79859617D01*
X114555506Y-79857175D01*
X114956331Y-79456350D01*
X115019228Y-79422199D01*
X115075824Y-79410169D01*
X115075833Y-79410166D01*
X115082288Y-79408794D01*
X115088319Y-79406109D01*
X115250722Y-79333803D01*
X115250724Y-79333802D01*
X115256752Y-79331118D01*
X115411253Y-79218866D01*
X115539040Y-79076944D01*
X115634527Y-78911556D01*
X115693542Y-78729928D01*
X115702241Y-78647167D01*
X115712814Y-78546565D01*
X115713504Y-78540000D01*
X115693542Y-78350072D01*
X115634527Y-78168444D01*
X115539040Y-78003056D01*
X115411253Y-77861134D01*
X115256752Y-77748882D01*
X115250724Y-77746198D01*
X115250722Y-77746197D01*
X115088319Y-77673891D01*
X115088318Y-77673891D01*
X115082288Y-77671206D01*
X114988887Y-77651353D01*
X114901944Y-77632872D01*
X114901939Y-77632872D01*
X114895487Y-77631500D01*
X114704513Y-77631500D01*
X114698061Y-77632872D01*
X114698056Y-77632872D01*
X114611113Y-77651353D01*
X114517712Y-77671206D01*
X114511682Y-77673891D01*
X114511681Y-77673891D01*
X114349278Y-77746197D01*
X114349276Y-77746198D01*
X114343248Y-77748882D01*
X114188747Y-77861134D01*
X114060960Y-78003056D01*
X113965473Y-78168444D01*
X113963431Y-78174729D01*
X113910613Y-78337285D01*
X113879875Y-78387444D01*
X113732724Y-78534595D01*
X113670412Y-78568621D01*
X113643629Y-78571500D01*
X109517063Y-78571500D01*
X109498114Y-78570067D01*
X109497907Y-78570036D01*
X109476651Y-78566802D01*
X109469359Y-78567395D01*
X109469356Y-78567395D01*
X109423991Y-78571085D01*
X109413777Y-78571500D01*
X109405707Y-78571500D01*
X109402087Y-78571922D01*
X109402069Y-78571923D01*
X109377461Y-78574792D01*
X109373100Y-78575224D01*
X109347981Y-78577267D01*
X109307661Y-78580546D01*
X109307658Y-78580547D01*
X109300363Y-78581140D01*
X109293399Y-78583396D01*
X109287440Y-78584587D01*
X109281585Y-78585971D01*
X109274319Y-78586818D01*
X109205673Y-78611735D01*
X109201545Y-78613152D01*
X109139064Y-78633393D01*
X109139062Y-78633394D01*
X109132101Y-78635649D01*
X109125846Y-78639445D01*
X109120372Y-78641951D01*
X109114942Y-78644670D01*
X109108063Y-78647167D01*
X109047016Y-78687191D01*
X109043327Y-78689518D01*
X109023135Y-78701771D01*
X108985693Y-78724491D01*
X108985688Y-78724495D01*
X108980892Y-78727405D01*
X108972516Y-78734803D01*
X108972493Y-78734777D01*
X108969503Y-78737426D01*
X108966264Y-78740134D01*
X108960148Y-78744144D01*
X108955121Y-78749451D01*
X108955117Y-78749454D01*
X108906872Y-78800383D01*
X108904494Y-78802825D01*
X108121089Y-79586230D01*
X108106677Y-79598616D01*
X108095082Y-79607149D01*
X108095077Y-79607154D01*
X108089182Y-79611492D01*
X108084443Y-79617070D01*
X108084440Y-79617073D01*
X108054965Y-79651768D01*
X108048035Y-79659284D01*
X108042340Y-79664979D01*
X108040060Y-79667861D01*
X108024719Y-79687251D01*
X108021928Y-79690655D01*
X107979409Y-79740703D01*
X107974667Y-79746285D01*
X107971339Y-79752801D01*
X107967972Y-79757850D01*
X107964805Y-79762979D01*
X107960266Y-79768716D01*
X107929345Y-79834875D01*
X107927442Y-79838769D01*
X107894231Y-79903808D01*
X107892492Y-79910916D01*
X107890393Y-79916559D01*
X107888476Y-79922322D01*
X107885378Y-79928950D01*
X107883888Y-79936112D01*
X107883888Y-79936113D01*
X107870514Y-80000412D01*
X107869544Y-80004696D01*
X107852192Y-80075610D01*
X107851500Y-80086764D01*
X107851464Y-80086762D01*
X107851225Y-80090755D01*
X107850851Y-80094947D01*
X107849360Y-80102115D01*
X107849558Y-80109432D01*
X107851454Y-80179521D01*
X107851500Y-80182928D01*
X107851500Y-85353629D01*
X107831498Y-85421750D01*
X107814595Y-85442724D01*
X107402724Y-85854595D01*
X107340412Y-85888621D01*
X107313629Y-85891500D01*
X106972587Y-85891500D01*
X106898528Y-85867437D01*
X106892098Y-85862765D01*
X106892091Y-85862761D01*
X106886752Y-85858882D01*
X106880724Y-85856198D01*
X106880722Y-85856197D01*
X106718319Y-85783891D01*
X106718318Y-85783891D01*
X106712288Y-85781206D01*
X106618887Y-85761353D01*
X106531944Y-85742872D01*
X106531939Y-85742872D01*
X106525487Y-85741500D01*
X106334513Y-85741500D01*
X106328061Y-85742872D01*
X106328056Y-85742872D01*
X106241113Y-85761353D01*
X106147712Y-85781206D01*
X106141682Y-85783891D01*
X106141681Y-85783891D01*
X105979278Y-85856197D01*
X105979276Y-85856198D01*
X105973248Y-85858882D01*
X105967907Y-85862762D01*
X105967906Y-85862763D01*
X105932316Y-85888621D01*
X105818747Y-85971134D01*
X105814326Y-85976044D01*
X105814325Y-85976045D01*
X105743119Y-86055128D01*
X105690960Y-86113056D01*
X105595473Y-86278444D01*
X105536458Y-86460072D01*
X105516496Y-86650000D01*
X97768000Y-86650000D01*
X97768000Y-70480000D01*
X98346526Y-70480000D01*
X98366391Y-70732403D01*
X98367545Y-70737210D01*
X98367546Y-70737216D01*
X98402413Y-70882446D01*
X98425495Y-70978591D01*
X98427388Y-70983162D01*
X98427389Y-70983164D01*
X98511415Y-71186020D01*
X98522384Y-71212502D01*
X98654672Y-71428376D01*
X98819102Y-71620898D01*
X99011624Y-71785328D01*
X99227498Y-71917616D01*
X99232068Y-71919509D01*
X99232072Y-71919511D01*
X99436948Y-72004373D01*
X99461409Y-72014505D01*
X99546032Y-72034821D01*
X99702784Y-72072454D01*
X99702790Y-72072455D01*
X99707597Y-72073609D01*
X99960000Y-72093474D01*
X100212403Y-72073609D01*
X100217210Y-72072455D01*
X100217216Y-72072454D01*
X100373968Y-72034821D01*
X100458591Y-72014505D01*
X100483052Y-72004373D01*
X100687928Y-71919511D01*
X100687932Y-71919509D01*
X100692502Y-71917616D01*
X100908376Y-71785328D01*
X101100898Y-71620898D01*
X101265328Y-71428376D01*
X101397616Y-71212502D01*
X101408586Y-71186020D01*
X101492611Y-70983164D01*
X101492612Y-70983162D01*
X101494505Y-70978591D01*
X101517587Y-70882446D01*
X101552454Y-70737216D01*
X101552455Y-70737210D01*
X101553609Y-70732403D01*
X101573474Y-70480000D01*
X133076526Y-70480000D01*
X133096391Y-70732403D01*
X133097545Y-70737210D01*
X133097546Y-70737216D01*
X133132413Y-70882446D01*
X133155495Y-70978591D01*
X133157388Y-70983162D01*
X133157389Y-70983164D01*
X133241415Y-71186020D01*
X133252384Y-71212502D01*
X133384672Y-71428376D01*
X133549102Y-71620898D01*
X133741624Y-71785328D01*
X133957498Y-71917616D01*
X133962068Y-71919509D01*
X133962072Y-71919511D01*
X134166948Y-72004373D01*
X134191409Y-72014505D01*
X134276032Y-72034821D01*
X134432784Y-72072454D01*
X134432790Y-72072455D01*
X134437597Y-72073609D01*
X134690000Y-72093474D01*
X134942403Y-72073609D01*
X134947210Y-72072455D01*
X134947216Y-72072454D01*
X135103968Y-72034821D01*
X135188591Y-72014505D01*
X135213052Y-72004373D01*
X135417928Y-71919511D01*
X135417932Y-71919509D01*
X135422502Y-71917616D01*
X135638376Y-71785328D01*
X135830898Y-71620898D01*
X135995328Y-71428376D01*
X136127616Y-71212502D01*
X136138586Y-71186020D01*
X136222611Y-70983164D01*
X136222612Y-70983162D01*
X136224505Y-70978591D01*
X136247587Y-70882446D01*
X136282454Y-70737216D01*
X136282455Y-70737210D01*
X136283609Y-70732403D01*
X136303474Y-70480000D01*
X136283609Y-70227597D01*
X136282412Y-70222607D01*
X136232442Y-70014470D01*
X136224505Y-69981409D01*
X136162510Y-69831739D01*
X136129511Y-69752072D01*
X136129509Y-69752068D01*
X136127616Y-69747498D01*
X135995328Y-69531624D01*
X135830898Y-69339102D01*
X135638376Y-69174672D01*
X135422502Y-69042384D01*
X135417932Y-69040491D01*
X135417928Y-69040489D01*
X135193164Y-68947389D01*
X135193162Y-68947388D01*
X135188591Y-68945495D01*
X135103968Y-68925179D01*
X134947216Y-68887546D01*
X134947210Y-68887545D01*
X134942403Y-68886391D01*
X134690000Y-68866526D01*
X134437597Y-68886391D01*
X134432790Y-68887545D01*
X134432784Y-68887546D01*
X134276032Y-68925179D01*
X134191409Y-68945495D01*
X134186838Y-68947388D01*
X134186836Y-68947389D01*
X133962072Y-69040489D01*
X133962068Y-69040491D01*
X133957498Y-69042384D01*
X133741624Y-69174672D01*
X133549102Y-69339102D01*
X133384672Y-69531624D01*
X133252384Y-69747498D01*
X133250491Y-69752068D01*
X133250489Y-69752072D01*
X133217490Y-69831739D01*
X133155495Y-69981409D01*
X133147558Y-70014470D01*
X133097589Y-70222607D01*
X133096391Y-70227597D01*
X133076526Y-70480000D01*
X101573474Y-70480000D01*
X101553609Y-70227597D01*
X101552412Y-70222607D01*
X101550390Y-70214183D01*
X123934389Y-70214183D01*
X123935912Y-70222607D01*
X123948292Y-70226000D01*
X124997885Y-70226000D01*
X125013124Y-70221525D01*
X125014329Y-70220135D01*
X125016000Y-70212452D01*
X125016000Y-69164989D01*
X125524000Y-69164989D01*
X125524000Y-70207885D01*
X125528475Y-70223124D01*
X125529865Y-70224329D01*
X125537548Y-70226000D01*
X126588344Y-70226000D01*
X126601875Y-70222027D01*
X126603180Y-70212947D01*
X126561214Y-70045875D01*
X126557894Y-70036124D01*
X126472972Y-69840814D01*
X126468105Y-69831739D01*
X126352426Y-69652926D01*
X126346136Y-69644757D01*
X126202806Y-69487240D01*
X126195273Y-69480215D01*
X126028139Y-69348222D01*
X126019552Y-69342517D01*
X125833117Y-69239599D01*
X125823705Y-69235369D01*
X125622959Y-69164280D01*
X125612988Y-69161646D01*
X125541837Y-69148972D01*
X125528540Y-69150432D01*
X125524000Y-69164989D01*
X125016000Y-69164989D01*
X125016000Y-69163102D01*
X125012082Y-69149758D01*
X124997806Y-69147771D01*
X124959324Y-69153660D01*
X124949288Y-69156051D01*
X124746868Y-69222212D01*
X124737359Y-69226209D01*
X124548463Y-69324542D01*
X124539738Y-69330036D01*
X124369433Y-69457905D01*
X124361726Y-69464748D01*
X124214590Y-69618717D01*
X124208104Y-69626727D01*
X124088098Y-69802649D01*
X124083000Y-69811623D01*
X123993338Y-70004783D01*
X123989775Y-70014470D01*
X123934389Y-70214183D01*
X101550390Y-70214183D01*
X101502442Y-70014470D01*
X101494505Y-69981409D01*
X101432510Y-69831739D01*
X101399511Y-69752072D01*
X101399509Y-69752068D01*
X101397616Y-69747498D01*
X101265328Y-69531624D01*
X101100898Y-69339102D01*
X100908376Y-69174672D01*
X100692502Y-69042384D01*
X100687932Y-69040491D01*
X100687928Y-69040489D01*
X100463164Y-68947389D01*
X100463162Y-68947388D01*
X100458591Y-68945495D01*
X100373968Y-68925179D01*
X100217216Y-68887546D01*
X100217210Y-68887545D01*
X100212403Y-68886391D01*
X99960000Y-68866526D01*
X99707597Y-68886391D01*
X99702790Y-68887545D01*
X99702784Y-68887546D01*
X99546032Y-68925179D01*
X99461409Y-68945495D01*
X99456838Y-68947388D01*
X99456836Y-68947389D01*
X99232072Y-69040489D01*
X99232068Y-69040491D01*
X99227498Y-69042384D01*
X99011624Y-69174672D01*
X98819102Y-69339102D01*
X98654672Y-69531624D01*
X98522384Y-69747498D01*
X98520491Y-69752068D01*
X98520489Y-69752072D01*
X98487490Y-69831739D01*
X98425495Y-69981409D01*
X98417558Y-70014470D01*
X98367589Y-70222607D01*
X98366391Y-70227597D01*
X98346526Y-70480000D01*
X97768000Y-70480000D01*
X97768000Y-68384000D01*
X97788002Y-68315879D01*
X97841658Y-68269386D01*
X97894000Y-68258000D01*
X136706000Y-68258000D01*
X136774121Y-68278002D01*
G37*
%TD.AperFunction*%
%TD*%
M02*
