%TF.GenerationSoftware,KiCad,Pcbnew,(5.99.0-11414-g76a6177eb7)*%
%TF.CreationDate,2021-11-21T23:19:34+08:00*%
%TF.ProjectId,trackpoint,74726163-6b70-46f6-996e-742e6b696361,rev?*%
%TF.SameCoordinates,Original*%
%TF.FileFunction,Legend,Top*%
%TF.FilePolarity,Positive*%
%FSLAX46Y46*%
G04 Gerber Fmt 4.6, Leading zero omitted, Abs format (unit mm)*
G04 Created by KiCad (PCBNEW (5.99.0-11414-g76a6177eb7)) date 2021-11-21 23:19:34*
%MOMM*%
%LPD*%
G01*
G04 APERTURE LIST*
%ADD10C,0.150000*%
%ADD11C,0.120000*%
%ADD12C,0.200000*%
G04 APERTURE END LIST*
D10*
X120069047Y-87821428D02*
X120830952Y-87821428D01*
X120450000Y-88202380D02*
X120450000Y-87440476D01*
%TO.C,R3*%
X117022380Y-85816666D02*
X116546190Y-86150000D01*
X117022380Y-86388095D02*
X116022380Y-86388095D01*
X116022380Y-86007142D01*
X116070000Y-85911904D01*
X116117619Y-85864285D01*
X116212857Y-85816666D01*
X116355714Y-85816666D01*
X116450952Y-85864285D01*
X116498571Y-85911904D01*
X116546190Y-86007142D01*
X116546190Y-86388095D01*
X116022380Y-85483333D02*
X116022380Y-84864285D01*
X116403333Y-85197619D01*
X116403333Y-85054761D01*
X116450952Y-84959523D01*
X116498571Y-84911904D01*
X116593809Y-84864285D01*
X116831904Y-84864285D01*
X116927142Y-84911904D01*
X116974761Y-84959523D01*
X117022380Y-85054761D01*
X117022380Y-85340476D01*
X116974761Y-85435714D01*
X116927142Y-85483333D01*
%TO.C,R2*%
X108532380Y-85816666D02*
X108056190Y-86150000D01*
X108532380Y-86388095D02*
X107532380Y-86388095D01*
X107532380Y-86007142D01*
X107580000Y-85911904D01*
X107627619Y-85864285D01*
X107722857Y-85816666D01*
X107865714Y-85816666D01*
X107960952Y-85864285D01*
X108008571Y-85911904D01*
X108056190Y-86007142D01*
X108056190Y-86388095D01*
X107627619Y-85435714D02*
X107580000Y-85388095D01*
X107532380Y-85292857D01*
X107532380Y-85054761D01*
X107580000Y-84959523D01*
X107627619Y-84911904D01*
X107722857Y-84864285D01*
X107818095Y-84864285D01*
X107960952Y-84911904D01*
X108532380Y-85483333D01*
X108532380Y-84864285D01*
%TO.C,R1*%
X109732380Y-85816666D02*
X109256190Y-86150000D01*
X109732380Y-86388095D02*
X108732380Y-86388095D01*
X108732380Y-86007142D01*
X108780000Y-85911904D01*
X108827619Y-85864285D01*
X108922857Y-85816666D01*
X109065714Y-85816666D01*
X109160952Y-85864285D01*
X109208571Y-85911904D01*
X109256190Y-86007142D01*
X109256190Y-86388095D01*
X109732380Y-84864285D02*
X109732380Y-85435714D01*
X109732380Y-85150000D02*
X108732380Y-85150000D01*
X108875238Y-85245238D01*
X108970476Y-85340476D01*
X109018095Y-85435714D01*
%TO.C,C1*%
X117807142Y-85786666D02*
X117854761Y-85834285D01*
X117902380Y-85977142D01*
X117902380Y-86072380D01*
X117854761Y-86215238D01*
X117759523Y-86310476D01*
X117664285Y-86358095D01*
X117473809Y-86405714D01*
X117330952Y-86405714D01*
X117140476Y-86358095D01*
X117045238Y-86310476D01*
X116950000Y-86215238D01*
X116902380Y-86072380D01*
X116902380Y-85977142D01*
X116950000Y-85834285D01*
X116997619Y-85786666D01*
X117902380Y-84834285D02*
X117902380Y-85405714D01*
X117902380Y-85120000D02*
X116902380Y-85120000D01*
X117045238Y-85215238D01*
X117140476Y-85310476D01*
X117188095Y-85405714D01*
%TO.C,J3*%
X124936666Y-79882380D02*
X124936666Y-80596666D01*
X124889047Y-80739523D01*
X124793809Y-80834761D01*
X124650952Y-80882380D01*
X124555714Y-80882380D01*
X125317619Y-79882380D02*
X125936666Y-79882380D01*
X125603333Y-80263333D01*
X125746190Y-80263333D01*
X125841428Y-80310952D01*
X125889047Y-80358571D01*
X125936666Y-80453809D01*
X125936666Y-80691904D01*
X125889047Y-80787142D01*
X125841428Y-80834761D01*
X125746190Y-80882380D01*
X125460476Y-80882380D01*
X125365238Y-80834761D01*
X125317619Y-80787142D01*
%TO.C,H4*%
X133928095Y-67732380D02*
X133928095Y-66732380D01*
X133928095Y-67208571D02*
X134499523Y-67208571D01*
X134499523Y-67732380D02*
X134499523Y-66732380D01*
X135404285Y-67065714D02*
X135404285Y-67732380D01*
X135166190Y-66684761D02*
X134928095Y-67399047D01*
X135547142Y-67399047D01*
%TO.C,H3*%
X99198095Y-67732380D02*
X99198095Y-66732380D01*
X99198095Y-67208571D02*
X99769523Y-67208571D01*
X99769523Y-67732380D02*
X99769523Y-66732380D01*
X100150476Y-66732380D02*
X100769523Y-66732380D01*
X100436190Y-67113333D01*
X100579047Y-67113333D01*
X100674285Y-67160952D01*
X100721904Y-67208571D01*
X100769523Y-67303809D01*
X100769523Y-67541904D01*
X100721904Y-67637142D01*
X100674285Y-67684761D01*
X100579047Y-67732380D01*
X100293333Y-67732380D01*
X100198095Y-67684761D01*
X100150476Y-67637142D01*
%TO.C,H2*%
X133888095Y-86912380D02*
X133888095Y-85912380D01*
X133888095Y-86388571D02*
X134459523Y-86388571D01*
X134459523Y-86912380D02*
X134459523Y-85912380D01*
X134888095Y-86007619D02*
X134935714Y-85960000D01*
X135030952Y-85912380D01*
X135269047Y-85912380D01*
X135364285Y-85960000D01*
X135411904Y-86007619D01*
X135459523Y-86102857D01*
X135459523Y-86198095D01*
X135411904Y-86340952D01*
X134840476Y-86912380D01*
X135459523Y-86912380D01*
%TO.C,H1*%
X99108095Y-86662380D02*
X99108095Y-85662380D01*
X99108095Y-86138571D02*
X99679523Y-86138571D01*
X99679523Y-86662380D02*
X99679523Y-85662380D01*
X100679523Y-86662380D02*
X100108095Y-86662380D01*
X100393809Y-86662380D02*
X100393809Y-85662380D01*
X100298571Y-85805238D01*
X100203333Y-85900476D01*
X100108095Y-85948095D01*
%TO.C,J1*%
X121481666Y-85947380D02*
X121481666Y-86661666D01*
X121434047Y-86804523D01*
X121338809Y-86899761D01*
X121195952Y-86947380D01*
X121100714Y-86947380D01*
X122481666Y-86947380D02*
X121910238Y-86947380D01*
X122195952Y-86947380D02*
X122195952Y-85947380D01*
X122100714Y-86090238D01*
X122005476Y-86185476D01*
X121910238Y-86233095D01*
%TO.C,J2*%
X122392380Y-82103333D02*
X123106666Y-82103333D01*
X123249523Y-82150952D01*
X123344761Y-82246190D01*
X123392380Y-82389047D01*
X123392380Y-82484285D01*
X122487619Y-81674761D02*
X122440000Y-81627142D01*
X122392380Y-81531904D01*
X122392380Y-81293809D01*
X122440000Y-81198571D01*
X122487619Y-81150952D01*
X122582857Y-81103333D01*
X122678095Y-81103333D01*
X122820952Y-81150952D01*
X123392380Y-81722380D01*
X123392380Y-81103333D01*
D11*
%TO.C,R3*%
X115655000Y-85422936D02*
X115655000Y-85877064D01*
X114185000Y-85422936D02*
X114185000Y-85877064D01*
%TO.C,R2*%
X107165000Y-85422936D02*
X107165000Y-85877064D01*
X105695000Y-85422936D02*
X105695000Y-85877064D01*
%TO.C,R1*%
X110195000Y-85877064D02*
X110195000Y-85422936D01*
X111665000Y-85877064D02*
X111665000Y-85422936D01*
%TO.C,C1*%
X118395000Y-85881252D02*
X118395000Y-85358748D01*
X119865000Y-85881252D02*
X119865000Y-85358748D01*
%TO.C,J3*%
X126600000Y-69150000D02*
X123940000Y-69150000D01*
X126600000Y-76830000D02*
X126600000Y-69150000D01*
X123940000Y-76830000D02*
X123940000Y-69150000D01*
X126600000Y-76830000D02*
X123940000Y-76830000D01*
X126600000Y-78100000D02*
X126600000Y-79430000D01*
X126600000Y-79430000D02*
X125270000Y-79430000D01*
D12*
%TO.C,J1*%
X107470000Y-77670000D02*
G75*
G03*
X107470000Y-77670000I-100000J0D01*
G01*
X122370000Y-71820000D02*
X122370000Y-69670000D01*
X103370000Y-69670000D02*
X103370000Y-71820000D01*
X122370000Y-69670000D02*
X103370000Y-69670000D01*
D11*
%TO.C,J2*%
X134220000Y-83100000D02*
X134220000Y-80440000D01*
X126540000Y-80440000D02*
X134220000Y-80440000D01*
X125270000Y-83100000D02*
X123940000Y-83100000D01*
X123940000Y-83100000D02*
X123940000Y-81770000D01*
X126540000Y-83100000D02*
X134220000Y-83100000D01*
X126540000Y-83100000D02*
X126540000Y-80440000D01*
%TD*%
M02*
