M48
; DRILL file {KiCad (5.99.0-11414-g76a6177eb7)} date Sun Nov 21 23:19:32 2021
; FORMAT={-:-/ absolute / metric / decimal}
; #@! TF.CreationDate,2021-11-21T23:19:32+08:00
; #@! TF.GenerationSoftware,Kicad,Pcbnew,(5.99.0-11414-g76a6177eb7)
; #@! TF.FileFunction,MixedPlating,1,2
FMAT,2
METRIC
; #@! TA.AperFunction,Plated,PTH,ViaDrill
T1C0.400
; #@! TA.AperFunction,Plated,PTH,ComponentDrill
T2C1.000
; #@! TA.AperFunction,NonPlated,NPTH,ComponentDrill
T3C2.200
%
G90
G05
T1
X106.43Y-86.65
X109.99Y-82.21
X110.91Y-80.98
X112.88Y-87.08
X113.71Y-82.23
X114.8Y-78.54
X114.92Y-84.65
X115.97Y-82.9
X116.87Y-89.89
X116.89Y-87.77
X119.13Y-84.582
X127.91Y-88.9
T2
X125.27Y-70.48
X125.27Y-73.02
X125.27Y-75.56
X125.27Y-78.1
X125.27Y-81.77
X127.81Y-81.77
X130.35Y-81.77
X132.89Y-81.77
T3
X99.87Y-89.41
X99.96Y-70.48
X134.65Y-89.66
X134.69Y-70.48
T0
M30
