%TF.GenerationSoftware,KiCad,Pcbnew,(5.99.0-11414-g76a6177eb7)*%
%TF.CreationDate,2021-11-21T23:19:33+08:00*%
%TF.ProjectId,trackpoint,74726163-6b70-46f6-996e-742e6b696361,rev?*%
%TF.SameCoordinates,Original*%
%TF.FileFunction,Copper,L1,Top*%
%TF.FilePolarity,Positive*%
%FSLAX46Y46*%
G04 Gerber Fmt 4.6, Leading zero omitted, Abs format (unit mm)*
G04 Created by KiCad (PCBNEW (5.99.0-11414-g76a6177eb7)) date 2021-11-21 23:19:33*
%MOMM*%
%LPD*%
G01*
G04 APERTURE LIST*
G04 Aperture macros list*
%AMRoundRect*
0 Rectangle with rounded corners*
0 $1 Rounding radius*
0 $2 $3 $4 $5 $6 $7 $8 $9 X,Y pos of 4 corners*
0 Add a 4 corners polygon primitive as box body*
4,1,4,$2,$3,$4,$5,$6,$7,$8,$9,$2,$3,0*
0 Add four circle primitives for the rounded corners*
1,1,$1+$1,$2,$3*
1,1,$1+$1,$4,$5*
1,1,$1+$1,$6,$7*
1,1,$1+$1,$8,$9*
0 Add four rect primitives between the rounded corners*
20,1,$1+$1,$2,$3,$4,$5,0*
20,1,$1+$1,$4,$5,$6,$7,0*
20,1,$1+$1,$6,$7,$8,$9,0*
20,1,$1+$1,$8,$9,$2,$3,0*%
G04 Aperture macros list end*
%TA.AperFunction,SMDPad,CuDef*%
%ADD10RoundRect,0.250000X-0.450000X0.350000X-0.450000X-0.350000X0.450000X-0.350000X0.450000X0.350000X0*%
%TD*%
%TA.AperFunction,SMDPad,CuDef*%
%ADD11RoundRect,0.250000X0.450000X-0.350000X0.450000X0.350000X-0.450000X0.350000X-0.450000X-0.350000X0*%
%TD*%
%TA.AperFunction,SMDPad,CuDef*%
%ADD12RoundRect,0.250000X0.475000X-0.337500X0.475000X0.337500X-0.475000X0.337500X-0.475000X-0.337500X0*%
%TD*%
%TA.AperFunction,ComponentPad*%
%ADD13R,1.700000X1.700000*%
%TD*%
%TA.AperFunction,ComponentPad*%
%ADD14O,1.700000X1.700000*%
%TD*%
%TA.AperFunction,SMDPad,CuDef*%
%ADD15R,2.500000X2.800000*%
%TD*%
%TA.AperFunction,SMDPad,CuDef*%
%ADD16R,0.600000X1.700000*%
%TD*%
%TA.AperFunction,ViaPad*%
%ADD17C,0.800000*%
%TD*%
%TA.AperFunction,Conductor*%
%ADD18C,0.250000*%
%TD*%
%TA.AperFunction,Conductor*%
%ADD19C,0.500000*%
%TD*%
G04 APERTURE END LIST*
D10*
%TO.P,R3,1*%
%TO.N,RST*%
X114920000Y-84650000D03*
%TO.P,R3,2*%
%TO.N,GND*%
X114920000Y-86650000D03*
%TD*%
%TO.P,R2,1*%
%TO.N,D2*%
X106430000Y-84650000D03*
%TO.P,R2,2*%
%TO.N,PWR*%
X106430000Y-86650000D03*
%TD*%
D11*
%TO.P,R1,1*%
%TO.N,PWR*%
X110930000Y-86650000D03*
%TO.P,R1,2*%
%TO.N,D5*%
X110930000Y-84650000D03*
%TD*%
D12*
%TO.P,C1,1*%
%TO.N,PWR*%
X119130000Y-86657500D03*
%TO.P,C1,2*%
%TO.N,RST*%
X119130000Y-84582500D03*
%TD*%
D13*
%TO.P,J3,1,Pin_1*%
%TO.N,D2*%
X125270000Y-78100000D03*
D14*
%TO.P,J3,2,Pin_2*%
%TO.N,D5*%
X125270000Y-75560000D03*
%TO.P,J3,3,Pin_3*%
%TO.N,PWR*%
X125270000Y-73020000D03*
%TO.P,J3,4,Pin_4*%
%TO.N,GND*%
X125270000Y-70480000D03*
%TD*%
D15*
%TO.P,J1,S2,SHIELD*%
%TO.N,Net-(J1-PadS1)*%
X121120000Y-73620000D03*
%TO.P,J1,S1,SHIELD*%
X104620000Y-73620000D03*
D16*
%TO.P,J1,12,12*%
%TO.N,unconnected-(J1-Pad12)*%
X118370000Y-76070000D03*
%TO.P,J1,11,11*%
%TO.N,unconnected-(J1-Pad11)*%
X117370000Y-76070000D03*
%TO.P,J1,10,10*%
%TO.N,unconnected-(J1-Pad10)*%
X116370000Y-76070000D03*
%TO.P,J1,9,9*%
%TO.N,unconnected-(J1-Pad9)*%
X115370000Y-76070000D03*
%TO.P,J1,8,8*%
%TO.N,PWR*%
X114370000Y-76070000D03*
%TO.P,J1,7,7*%
%TO.N,GND*%
X113370000Y-76070000D03*
%TO.P,J1,6,6*%
%TO.N,D5*%
X112370000Y-76070000D03*
%TO.P,J1,5,5*%
%TO.N,unconnected-(J1-Pad5)*%
X111370000Y-76070000D03*
%TO.P,J1,4,4*%
%TO.N,unconnected-(J1-Pad4)*%
X110370000Y-76070000D03*
%TO.P,J1,3,3*%
%TO.N,unconnected-(J1-Pad3)*%
X109370000Y-76070000D03*
%TO.P,J1,2,2*%
%TO.N,RST*%
X108370000Y-76070000D03*
%TO.P,J1,1,1*%
%TO.N,D2*%
X107370000Y-76070000D03*
%TD*%
D13*
%TO.P,J2,1,Pin_1*%
%TO.N,D2*%
X125270000Y-81770000D03*
D14*
%TO.P,J2,2,Pin_2*%
%TO.N,D5*%
X127810000Y-81770000D03*
%TO.P,J2,3,Pin_3*%
%TO.N,PWR*%
X130350000Y-81770000D03*
%TO.P,J2,4,Pin_4*%
%TO.N,GND*%
X132890000Y-81770000D03*
%TD*%
D17*
%TO.N,D5*%
X116870000Y-89890000D03*
X112880000Y-87080000D03*
X127910000Y-88900000D03*
%TO.N,D2*%
X115970000Y-82900000D03*
X109990000Y-82210000D03*
X113710000Y-82230000D03*
%TO.N,PWR*%
X106430000Y-86650000D03*
X114800000Y-78540000D03*
%TO.N,GND*%
X116890000Y-87770000D03*
%TO.N,RST*%
X119130000Y-84582500D03*
X114920000Y-84650000D03*
X110910000Y-80980000D03*
%TD*%
D18*
%TO.N,D5*%
X126920000Y-89890000D02*
X127910000Y-88900000D01*
X112880000Y-85240000D02*
X112880000Y-87080000D01*
X116870000Y-89890000D02*
X126920000Y-89890000D01*
X112290000Y-84650000D02*
X112880000Y-85240000D01*
X111480000Y-84650000D02*
X112290000Y-84650000D01*
X110930000Y-84650000D02*
X111480000Y-84650000D01*
%TO.N,D2*%
X115300000Y-82230000D02*
X115970000Y-82900000D01*
X113710000Y-82230000D02*
X115300000Y-82230000D01*
X107550000Y-84650000D02*
X109990000Y-82210000D01*
X107420000Y-84650000D02*
X107550000Y-84650000D01*
X107240000Y-84650000D02*
X107420000Y-84650000D01*
X106430000Y-84650000D02*
X107240000Y-84650000D01*
D19*
%TO.N,PWR*%
X114370000Y-78110000D02*
X114800000Y-78540000D01*
X114370000Y-76070000D02*
X114370000Y-78110000D01*
D18*
%TO.N,GND*%
X116040000Y-87770000D02*
X116890000Y-87770000D01*
X114920000Y-86650000D02*
X116040000Y-87770000D01*
D19*
%TO.N,PWR*%
X130350000Y-86320000D02*
X130350000Y-81770000D01*
X129940000Y-86730000D02*
X130350000Y-86320000D01*
X119202500Y-86730000D02*
X129940000Y-86730000D01*
X119130000Y-86657500D02*
X119202500Y-86730000D01*
X106430000Y-86650000D02*
X110930000Y-86650000D01*
X119130000Y-88180000D02*
X119130000Y-86657500D01*
X110930000Y-87960000D02*
X111710000Y-88740000D01*
X111710000Y-88740000D02*
X118570000Y-88740000D01*
X110930000Y-86650000D02*
X110930000Y-87960000D01*
X118570000Y-88740000D02*
X119130000Y-88180000D01*
D18*
%TO.N,GND*%
X116950000Y-82250000D02*
X116950000Y-85820000D01*
X113370000Y-78670000D02*
X116950000Y-82250000D01*
X116950000Y-85820000D02*
X116120000Y-86650000D01*
X113370000Y-76070000D02*
X113370000Y-78670000D01*
X116120000Y-86650000D02*
X114920000Y-86650000D01*
%TO.N,RST*%
X108370000Y-78440000D02*
X110910000Y-80980000D01*
X108370000Y-76070000D02*
X108370000Y-78440000D01*
%TO.N,D5*%
X110930000Y-83170000D02*
X110930000Y-84650000D01*
X112370000Y-76070000D02*
X112370000Y-81730000D01*
X112370000Y-81730000D02*
X110930000Y-83170000D01*
%TO.N,D2*%
X106430000Y-82770000D02*
X106430000Y-84650000D01*
X107370000Y-81830000D02*
X106430000Y-82770000D01*
X107370000Y-76070000D02*
X107370000Y-81830000D01*
%TD*%
%TA.AperFunction,Conductor*%
%TO.N,GND*%
G36*
X136774121Y-68278002D02*
G01*
X136820614Y-68331658D01*
X136832000Y-68384000D01*
X136832000Y-91726000D01*
X136811998Y-91794121D01*
X136758342Y-91840614D01*
X136706000Y-91852000D01*
X97894000Y-91852000D01*
X97825879Y-91831998D01*
X97779386Y-91778342D01*
X97768000Y-91726000D01*
X97768000Y-89410000D01*
X98256526Y-89410000D01*
X98276391Y-89662403D01*
X98277545Y-89667210D01*
X98277546Y-89667216D01*
X98283928Y-89693798D01*
X98335495Y-89908591D01*
X98337388Y-89913162D01*
X98337389Y-89913164D01*
X98403747Y-90073365D01*
X98432384Y-90142502D01*
X98564672Y-90358376D01*
X98729102Y-90550898D01*
X98921624Y-90715328D01*
X99137498Y-90847616D01*
X99142068Y-90849509D01*
X99142072Y-90849511D01*
X99366836Y-90942611D01*
X99371409Y-90944505D01*
X99444769Y-90962117D01*
X99612784Y-91002454D01*
X99612790Y-91002455D01*
X99617597Y-91003609D01*
X99870000Y-91023474D01*
X100122403Y-91003609D01*
X100127210Y-91002455D01*
X100127216Y-91002454D01*
X100295231Y-90962117D01*
X100368591Y-90944505D01*
X100373164Y-90942611D01*
X100597928Y-90849511D01*
X100597932Y-90849509D01*
X100602502Y-90847616D01*
X100818376Y-90715328D01*
X101010898Y-90550898D01*
X101175328Y-90358376D01*
X101307616Y-90142502D01*
X101336254Y-90073365D01*
X101402611Y-89913164D01*
X101402612Y-89913162D01*
X101404505Y-89908591D01*
X101456072Y-89693798D01*
X101462454Y-89667216D01*
X101462455Y-89667210D01*
X101463609Y-89662403D01*
X101483474Y-89410000D01*
X101463609Y-89157597D01*
X101448871Y-89096206D01*
X101409466Y-88932072D01*
X101404505Y-88911409D01*
X101332887Y-88738508D01*
X101309511Y-88682072D01*
X101309509Y-88682068D01*
X101307616Y-88677498D01*
X101175328Y-88461624D01*
X101010898Y-88269102D01*
X100818376Y-88104672D01*
X100602502Y-87972384D01*
X100597932Y-87970491D01*
X100597928Y-87970489D01*
X100373164Y-87877389D01*
X100373162Y-87877388D01*
X100368591Y-87875495D01*
X100215028Y-87838628D01*
X100127216Y-87817546D01*
X100127210Y-87817545D01*
X100122403Y-87816391D01*
X99870000Y-87796526D01*
X99617597Y-87816391D01*
X99612790Y-87817545D01*
X99612784Y-87817546D01*
X99524972Y-87838628D01*
X99371409Y-87875495D01*
X99366838Y-87877388D01*
X99366836Y-87877389D01*
X99142072Y-87970489D01*
X99142068Y-87970491D01*
X99137498Y-87972384D01*
X98921624Y-88104672D01*
X98729102Y-88269102D01*
X98564672Y-88461624D01*
X98432384Y-88677498D01*
X98430491Y-88682068D01*
X98430489Y-88682072D01*
X98407113Y-88738508D01*
X98335495Y-88911409D01*
X98330534Y-88932072D01*
X98291130Y-89096206D01*
X98276391Y-89157597D01*
X98256526Y-89410000D01*
X97768000Y-89410000D01*
X97768000Y-72220000D01*
X102856271Y-72220000D01*
X102856271Y-75020000D01*
X102861500Y-75093111D01*
X102882531Y-75164734D01*
X102897448Y-75215537D01*
X102902696Y-75233411D01*
X102907567Y-75240990D01*
X102976878Y-75348841D01*
X102976880Y-75348844D01*
X102981750Y-75356421D01*
X102988560Y-75362322D01*
X103085445Y-75446274D01*
X103085448Y-75446276D01*
X103092257Y-75452176D01*
X103225266Y-75512919D01*
X103370000Y-75533729D01*
X105870000Y-75533729D01*
X105901986Y-75531441D01*
X105936373Y-75528982D01*
X105936374Y-75528982D01*
X105943111Y-75528500D01*
X106022618Y-75505155D01*
X106074765Y-75489843D01*
X106074767Y-75489842D01*
X106083411Y-75487304D01*
X106147255Y-75446274D01*
X106198841Y-75413122D01*
X106198844Y-75413120D01*
X106206421Y-75408250D01*
X106251331Y-75356421D01*
X106296274Y-75304555D01*
X106296276Y-75304552D01*
X106302176Y-75297743D01*
X106305920Y-75289545D01*
X106305922Y-75289542D01*
X106315658Y-75268223D01*
X106362151Y-75214568D01*
X106430271Y-75194566D01*
X106498392Y-75214568D01*
X106544885Y-75268224D01*
X106556271Y-75320566D01*
X106556271Y-76920000D01*
X106561500Y-76993111D01*
X106602696Y-77133411D01*
X106607567Y-77140990D01*
X106676878Y-77248841D01*
X106676880Y-77248844D01*
X106681750Y-77256421D01*
X106688561Y-77262322D01*
X106688562Y-77262324D01*
X106693014Y-77266182D01*
X106731397Y-77325909D01*
X106736500Y-77361405D01*
X106736500Y-81515405D01*
X106716498Y-81583526D01*
X106699595Y-81604501D01*
X106037742Y-82266353D01*
X106029463Y-82273887D01*
X106022982Y-82278000D01*
X105987092Y-82316219D01*
X105976357Y-82327651D01*
X105973602Y-82330493D01*
X105953865Y-82350230D01*
X105951385Y-82353427D01*
X105943682Y-82362447D01*
X105913414Y-82394679D01*
X105909595Y-82401625D01*
X105909593Y-82401628D01*
X105903652Y-82412434D01*
X105892801Y-82428953D01*
X105880386Y-82444959D01*
X105877241Y-82452228D01*
X105877238Y-82452232D01*
X105862826Y-82485537D01*
X105857609Y-82496187D01*
X105836305Y-82534940D01*
X105834334Y-82542615D01*
X105834334Y-82542616D01*
X105831267Y-82554562D01*
X105824863Y-82573266D01*
X105816819Y-82591855D01*
X105815580Y-82599678D01*
X105815577Y-82599688D01*
X105809901Y-82635524D01*
X105807495Y-82647144D01*
X105801503Y-82670483D01*
X105796500Y-82689970D01*
X105796500Y-82710224D01*
X105794949Y-82729934D01*
X105791780Y-82749943D01*
X105792526Y-82757835D01*
X105795941Y-82793961D01*
X105796500Y-82805819D01*
X105796500Y-83471348D01*
X105776498Y-83539469D01*
X105722842Y-83585962D01*
X105713491Y-83589787D01*
X105638063Y-83617167D01*
X105631946Y-83621178D01*
X105631943Y-83621179D01*
X105521568Y-83693544D01*
X105490148Y-83714144D01*
X105368510Y-83842547D01*
X105279674Y-83995490D01*
X105277553Y-84002494D01*
X105277551Y-84002498D01*
X105237901Y-84133414D01*
X105228405Y-84164767D01*
X105227830Y-84171206D01*
X105227830Y-84171208D01*
X105224871Y-84204370D01*
X105221500Y-84242137D01*
X105221500Y-85044293D01*
X105236818Y-85175681D01*
X105239313Y-85182556D01*
X105239314Y-85182558D01*
X105290865Y-85324575D01*
X105297167Y-85341937D01*
X105301178Y-85348054D01*
X105301179Y-85348057D01*
X105378179Y-85465502D01*
X105394144Y-85489852D01*
X105399456Y-85494884D01*
X105399460Y-85494889D01*
X105465250Y-85557213D01*
X105500948Y-85618582D01*
X105497800Y-85689509D01*
X105470070Y-85735338D01*
X105393098Y-85816591D01*
X105368510Y-85842547D01*
X105279674Y-85995490D01*
X105277553Y-86002494D01*
X105277551Y-86002498D01*
X105238418Y-86131707D01*
X105228405Y-86164767D01*
X105227830Y-86171206D01*
X105227830Y-86171208D01*
X105227173Y-86178576D01*
X105221500Y-86242137D01*
X105221500Y-87044293D01*
X105223403Y-87060612D01*
X105232814Y-87141333D01*
X105236818Y-87175681D01*
X105239313Y-87182556D01*
X105239314Y-87182558D01*
X105291100Y-87325224D01*
X105297167Y-87341937D01*
X105301178Y-87348054D01*
X105301179Y-87348057D01*
X105384677Y-87475413D01*
X105394144Y-87489852D01*
X105522547Y-87611490D01*
X105675490Y-87700326D01*
X105682494Y-87702447D01*
X105682498Y-87702449D01*
X105789677Y-87734910D01*
X105844767Y-87751595D01*
X105851206Y-87752170D01*
X105851208Y-87752170D01*
X105919344Y-87758251D01*
X105919350Y-87758251D01*
X105922137Y-87758500D01*
X106924293Y-87758500D01*
X106994036Y-87750369D01*
X107048411Y-87744030D01*
X107048415Y-87744029D01*
X107055681Y-87743182D01*
X107062556Y-87740687D01*
X107062558Y-87740686D01*
X107215061Y-87685329D01*
X107215062Y-87685329D01*
X107221937Y-87682833D01*
X107228054Y-87678822D01*
X107228057Y-87678821D01*
X107363733Y-87589868D01*
X107363734Y-87589867D01*
X107369852Y-87585856D01*
X107491490Y-87457453D01*
X107491595Y-87457272D01*
X107546077Y-87416459D01*
X107590149Y-87408500D01*
X109772750Y-87408500D01*
X109840871Y-87428502D01*
X109878121Y-87465414D01*
X109890130Y-87483730D01*
X109894144Y-87489852D01*
X110022547Y-87611490D01*
X110028874Y-87615165D01*
X110028878Y-87615168D01*
X110108785Y-87661581D01*
X110157644Y-87713092D01*
X110171500Y-87770535D01*
X110171500Y-87892930D01*
X110170067Y-87911880D01*
X110166801Y-87933349D01*
X110167394Y-87940641D01*
X110167394Y-87940644D01*
X110171085Y-87986018D01*
X110171500Y-87996233D01*
X110171500Y-88004293D01*
X110171925Y-88007937D01*
X110174789Y-88032507D01*
X110175222Y-88036882D01*
X110176007Y-88046526D01*
X110181140Y-88109637D01*
X110183396Y-88116601D01*
X110184587Y-88122560D01*
X110185971Y-88128415D01*
X110186818Y-88135681D01*
X110211735Y-88204327D01*
X110213152Y-88208455D01*
X110229613Y-88259266D01*
X110235649Y-88277899D01*
X110239445Y-88284154D01*
X110241951Y-88289628D01*
X110244670Y-88295058D01*
X110247167Y-88301937D01*
X110251180Y-88308057D01*
X110251180Y-88308058D01*
X110287186Y-88362976D01*
X110289523Y-88366680D01*
X110327405Y-88429107D01*
X110331121Y-88433315D01*
X110331122Y-88433316D01*
X110334803Y-88437484D01*
X110334776Y-88437508D01*
X110337429Y-88440500D01*
X110340132Y-88443733D01*
X110344144Y-88449852D01*
X110349456Y-88454884D01*
X110400383Y-88503128D01*
X110402825Y-88505506D01*
X111126230Y-89228911D01*
X111138616Y-89243323D01*
X111147149Y-89254918D01*
X111147154Y-89254923D01*
X111151492Y-89260818D01*
X111157070Y-89265557D01*
X111157073Y-89265560D01*
X111191768Y-89295035D01*
X111199284Y-89301965D01*
X111204980Y-89307661D01*
X111207841Y-89309924D01*
X111207846Y-89309929D01*
X111227256Y-89325285D01*
X111230658Y-89328074D01*
X111286285Y-89375333D01*
X111292802Y-89378661D01*
X111297850Y-89382027D01*
X111302972Y-89385190D01*
X111308716Y-89389735D01*
X111374895Y-89420664D01*
X111378779Y-89422563D01*
X111443808Y-89455769D01*
X111450923Y-89457510D01*
X111456578Y-89459613D01*
X111462317Y-89461522D01*
X111468950Y-89464622D01*
X111540435Y-89479491D01*
X111544701Y-89480457D01*
X111615610Y-89497808D01*
X111621212Y-89498156D01*
X111621215Y-89498156D01*
X111626764Y-89498500D01*
X111626762Y-89498535D01*
X111630734Y-89498775D01*
X111634955Y-89499152D01*
X111642115Y-89500641D01*
X111719542Y-89498546D01*
X111722950Y-89498500D01*
X115868529Y-89498500D01*
X115936650Y-89518502D01*
X115983143Y-89572158D01*
X115993247Y-89642432D01*
X115988363Y-89663432D01*
X115976458Y-89700072D01*
X115956496Y-89890000D01*
X115976458Y-90079928D01*
X116035473Y-90261556D01*
X116130960Y-90426944D01*
X116135378Y-90431851D01*
X116135379Y-90431852D01*
X116245457Y-90554106D01*
X116258747Y-90568866D01*
X116413248Y-90681118D01*
X116419276Y-90683802D01*
X116419278Y-90683803D01*
X116581681Y-90756109D01*
X116587712Y-90758794D01*
X116681113Y-90778647D01*
X116768056Y-90797128D01*
X116768061Y-90797128D01*
X116774513Y-90798500D01*
X116965487Y-90798500D01*
X116971939Y-90797128D01*
X116971944Y-90797128D01*
X117058887Y-90778647D01*
X117152288Y-90758794D01*
X117158319Y-90756109D01*
X117320722Y-90683803D01*
X117320724Y-90683802D01*
X117326752Y-90681118D01*
X117481253Y-90568866D01*
X117485668Y-90563963D01*
X117490580Y-90559540D01*
X117491705Y-90560789D01*
X117545014Y-90527949D01*
X117578200Y-90523500D01*
X126841233Y-90523500D01*
X126852416Y-90524027D01*
X126859909Y-90525702D01*
X126867835Y-90525453D01*
X126867836Y-90525453D01*
X126927986Y-90523562D01*
X126931945Y-90523500D01*
X126959856Y-90523500D01*
X126963791Y-90523003D01*
X126963856Y-90522995D01*
X126975693Y-90522062D01*
X127007951Y-90521048D01*
X127011970Y-90520922D01*
X127019889Y-90520673D01*
X127039343Y-90515021D01*
X127058700Y-90511013D01*
X127070930Y-90509468D01*
X127070931Y-90509468D01*
X127078797Y-90508474D01*
X127086168Y-90505555D01*
X127086170Y-90505555D01*
X127119912Y-90492196D01*
X127131142Y-90488351D01*
X127165983Y-90478229D01*
X127165984Y-90478229D01*
X127173593Y-90476018D01*
X127180412Y-90471985D01*
X127180417Y-90471983D01*
X127191028Y-90465707D01*
X127208776Y-90457012D01*
X127227617Y-90449552D01*
X127263387Y-90423564D01*
X127273307Y-90417048D01*
X127304535Y-90398580D01*
X127304538Y-90398578D01*
X127311362Y-90394542D01*
X127325683Y-90380221D01*
X127340717Y-90367380D01*
X127350694Y-90360131D01*
X127357107Y-90355472D01*
X127385298Y-90321395D01*
X127393288Y-90312616D01*
X127860499Y-89845405D01*
X127922811Y-89811379D01*
X127949594Y-89808500D01*
X128005487Y-89808500D01*
X128011939Y-89807128D01*
X128011944Y-89807128D01*
X128098887Y-89788647D01*
X128192288Y-89768794D01*
X128198319Y-89766109D01*
X128360722Y-89693803D01*
X128360724Y-89693802D01*
X128366752Y-89691118D01*
X128404852Y-89663437D01*
X128409582Y-89660000D01*
X133036526Y-89660000D01*
X133056391Y-89912403D01*
X133115495Y-90158591D01*
X133117388Y-90163162D01*
X133117389Y-90163164D01*
X133204392Y-90373207D01*
X133212384Y-90392502D01*
X133344672Y-90608376D01*
X133509102Y-90800898D01*
X133701624Y-90965328D01*
X133917498Y-91097616D01*
X133922068Y-91099509D01*
X133922072Y-91099511D01*
X134146836Y-91192611D01*
X134151409Y-91194505D01*
X134236032Y-91214821D01*
X134392784Y-91252454D01*
X134392790Y-91252455D01*
X134397597Y-91253609D01*
X134650000Y-91273474D01*
X134902403Y-91253609D01*
X134907210Y-91252455D01*
X134907216Y-91252454D01*
X135063968Y-91214821D01*
X135148591Y-91194505D01*
X135153164Y-91192611D01*
X135377928Y-91099511D01*
X135377932Y-91099509D01*
X135382502Y-91097616D01*
X135598376Y-90965328D01*
X135790898Y-90800898D01*
X135955328Y-90608376D01*
X136087616Y-90392502D01*
X136095609Y-90373207D01*
X136182611Y-90163164D01*
X136182612Y-90163162D01*
X136184505Y-90158591D01*
X136243609Y-89912403D01*
X136263474Y-89660000D01*
X136243609Y-89407597D01*
X136240066Y-89392836D01*
X136198474Y-89219595D01*
X136184505Y-89161409D01*
X136182611Y-89156836D01*
X136089511Y-88932072D01*
X136089509Y-88932068D01*
X136087616Y-88927498D01*
X135955328Y-88711624D01*
X135790898Y-88519102D01*
X135783932Y-88513152D01*
X135709817Y-88449852D01*
X135598376Y-88354672D01*
X135382502Y-88222384D01*
X135377932Y-88220491D01*
X135377928Y-88220489D01*
X135153164Y-88127389D01*
X135153162Y-88127388D01*
X135148591Y-88125495D01*
X135061856Y-88104672D01*
X134907216Y-88067546D01*
X134907210Y-88067545D01*
X134902403Y-88066391D01*
X134650000Y-88046526D01*
X134397597Y-88066391D01*
X134392790Y-88067545D01*
X134392784Y-88067546D01*
X134238144Y-88104672D01*
X134151409Y-88125495D01*
X134146838Y-88127388D01*
X134146836Y-88127389D01*
X133922072Y-88220489D01*
X133922068Y-88220491D01*
X133917498Y-88222384D01*
X133701624Y-88354672D01*
X133590183Y-88449852D01*
X133516069Y-88513152D01*
X133509102Y-88519102D01*
X133344672Y-88711624D01*
X133212384Y-88927498D01*
X133210491Y-88932068D01*
X133210489Y-88932072D01*
X133117389Y-89156836D01*
X133115495Y-89161409D01*
X133101526Y-89219595D01*
X133059935Y-89392836D01*
X133056391Y-89407597D01*
X133036526Y-89660000D01*
X128409582Y-89660000D01*
X128433762Y-89642432D01*
X128521253Y-89578866D01*
X128593367Y-89498775D01*
X128644621Y-89441852D01*
X128644622Y-89441851D01*
X128649040Y-89436944D01*
X128712715Y-89326656D01*
X128741223Y-89277279D01*
X128741224Y-89277278D01*
X128744527Y-89271556D01*
X128803542Y-89089928D01*
X128823504Y-88900000D01*
X128803542Y-88710072D01*
X128744527Y-88528444D01*
X128739134Y-88519102D01*
X128652341Y-88368774D01*
X128649040Y-88363056D01*
X128572365Y-88277899D01*
X128525675Y-88226045D01*
X128525674Y-88226044D01*
X128521253Y-88221134D01*
X128366752Y-88108882D01*
X128360724Y-88106198D01*
X128360722Y-88106197D01*
X128198319Y-88033891D01*
X128198318Y-88033891D01*
X128192288Y-88031206D01*
X128082817Y-88007937D01*
X128011944Y-87992872D01*
X128011939Y-87992872D01*
X128005487Y-87991500D01*
X127814513Y-87991500D01*
X127808061Y-87992872D01*
X127808056Y-87992872D01*
X127737183Y-88007937D01*
X127627712Y-88031206D01*
X127621682Y-88033891D01*
X127621681Y-88033891D01*
X127459278Y-88106197D01*
X127459276Y-88106198D01*
X127453248Y-88108882D01*
X127298747Y-88221134D01*
X127294326Y-88226044D01*
X127294325Y-88226045D01*
X127247636Y-88277899D01*
X127170960Y-88363056D01*
X127167659Y-88368774D01*
X127080867Y-88519102D01*
X127075473Y-88528444D01*
X127016458Y-88710072D01*
X127015768Y-88716633D01*
X127015768Y-88716635D01*
X126999093Y-88875292D01*
X126972080Y-88940949D01*
X126962878Y-88951217D01*
X126694500Y-89219595D01*
X126632188Y-89253621D01*
X126605405Y-89256500D01*
X119430371Y-89256500D01*
X119362250Y-89236498D01*
X119315757Y-89182842D01*
X119305653Y-89112568D01*
X119335147Y-89047988D01*
X119341276Y-89041405D01*
X119618911Y-88763770D01*
X119633323Y-88751384D01*
X119644918Y-88742851D01*
X119644923Y-88742846D01*
X119650818Y-88738508D01*
X119655557Y-88732930D01*
X119655560Y-88732927D01*
X119685035Y-88698232D01*
X119691965Y-88690716D01*
X119697661Y-88685020D01*
X119699924Y-88682159D01*
X119699929Y-88682154D01*
X119715285Y-88662744D01*
X119718074Y-88659342D01*
X119760596Y-88609291D01*
X119760597Y-88609290D01*
X119765333Y-88603715D01*
X119768661Y-88597198D01*
X119772027Y-88592150D01*
X119775190Y-88587028D01*
X119779735Y-88581284D01*
X119810664Y-88515105D01*
X119812563Y-88511221D01*
X119845769Y-88446192D01*
X119847510Y-88439077D01*
X119849613Y-88433422D01*
X119851522Y-88427683D01*
X119854622Y-88421050D01*
X119869491Y-88349565D01*
X119870461Y-88345282D01*
X119887808Y-88274390D01*
X119888500Y-88263236D01*
X119888535Y-88263238D01*
X119888775Y-88259266D01*
X119889152Y-88255045D01*
X119890641Y-88247885D01*
X119888546Y-88170458D01*
X119888500Y-88167050D01*
X119888500Y-87783967D01*
X119908502Y-87715846D01*
X119948376Y-87680027D01*
X119946937Y-87677833D01*
X120088733Y-87584868D01*
X120088734Y-87584867D01*
X120094852Y-87580856D01*
X120145068Y-87527847D01*
X120206437Y-87492149D01*
X120236541Y-87488500D01*
X129872930Y-87488500D01*
X129891880Y-87489933D01*
X129906115Y-87492099D01*
X129906119Y-87492099D01*
X129913349Y-87493199D01*
X129920641Y-87492606D01*
X129920644Y-87492606D01*
X129966018Y-87488915D01*
X129976233Y-87488500D01*
X129984293Y-87488500D01*
X129997583Y-87486951D01*
X130012507Y-87485211D01*
X130016882Y-87484778D01*
X130082339Y-87479454D01*
X130082342Y-87479453D01*
X130089637Y-87478860D01*
X130096601Y-87476604D01*
X130102560Y-87475413D01*
X130108415Y-87474029D01*
X130115681Y-87473182D01*
X130184327Y-87448265D01*
X130188455Y-87446848D01*
X130250936Y-87426607D01*
X130250938Y-87426606D01*
X130257899Y-87424351D01*
X130264154Y-87420555D01*
X130269628Y-87418049D01*
X130275058Y-87415330D01*
X130281937Y-87412833D01*
X130342976Y-87372814D01*
X130346680Y-87370477D01*
X130409107Y-87332595D01*
X130417484Y-87325197D01*
X130417508Y-87325224D01*
X130420500Y-87322571D01*
X130423733Y-87319868D01*
X130429852Y-87315856D01*
X130483128Y-87259617D01*
X130485506Y-87257175D01*
X130838911Y-86903770D01*
X130853323Y-86891384D01*
X130864918Y-86882851D01*
X130864923Y-86882846D01*
X130870818Y-86878508D01*
X130875557Y-86872930D01*
X130875560Y-86872927D01*
X130905035Y-86838232D01*
X130911965Y-86830716D01*
X130917661Y-86825020D01*
X130919924Y-86822159D01*
X130919929Y-86822154D01*
X130935293Y-86802734D01*
X130938082Y-86799333D01*
X130980592Y-86749296D01*
X130980594Y-86749294D01*
X130985333Y-86743715D01*
X130988662Y-86737195D01*
X130992028Y-86732148D01*
X130995193Y-86727024D01*
X130999735Y-86721283D01*
X131030637Y-86655164D01*
X131032565Y-86651218D01*
X131062442Y-86592708D01*
X131062443Y-86592706D01*
X131065769Y-86586192D01*
X131067508Y-86579086D01*
X131069609Y-86573436D01*
X131071524Y-86567679D01*
X131074622Y-86561050D01*
X131089491Y-86489565D01*
X131090461Y-86485282D01*
X131098145Y-86453879D01*
X131107808Y-86414390D01*
X131108500Y-86403236D01*
X131108535Y-86403238D01*
X131108775Y-86399266D01*
X131109152Y-86395045D01*
X131110641Y-86387885D01*
X131108546Y-86310458D01*
X131108500Y-86307050D01*
X131108500Y-82962632D01*
X131128502Y-82894511D01*
X131161331Y-82860054D01*
X131229860Y-82811173D01*
X131388096Y-82653489D01*
X131410544Y-82622250D01*
X131518453Y-82472077D01*
X131519640Y-82472930D01*
X131566960Y-82429362D01*
X131636897Y-82417145D01*
X131702338Y-82444678D01*
X131730166Y-82476511D01*
X131787694Y-82570388D01*
X131793777Y-82578699D01*
X131933213Y-82739667D01*
X131940580Y-82746883D01*
X132104434Y-82882916D01*
X132112881Y-82888831D01*
X132296756Y-82996279D01*
X132306042Y-83000729D01*
X132505001Y-83076703D01*
X132514899Y-83079579D01*
X132618250Y-83100606D01*
X132632299Y-83099410D01*
X132636000Y-83089065D01*
X132636000Y-82037548D01*
X133144000Y-82037548D01*
X133144000Y-83088517D01*
X133148064Y-83102359D01*
X133161478Y-83104393D01*
X133168184Y-83103534D01*
X133178262Y-83101392D01*
X133382255Y-83040191D01*
X133391842Y-83036433D01*
X133583095Y-82942739D01*
X133591945Y-82937464D01*
X133765328Y-82813792D01*
X133773200Y-82807139D01*
X133924052Y-82656812D01*
X133930730Y-82648965D01*
X134055003Y-82476020D01*
X134060313Y-82467183D01*
X134154670Y-82276267D01*
X134158469Y-82266672D01*
X134220377Y-82062910D01*
X134222555Y-82052837D01*
X134223986Y-82041962D01*
X134221775Y-82027778D01*
X134208617Y-82024000D01*
X133162115Y-82024000D01*
X133146876Y-82028475D01*
X133145671Y-82029865D01*
X133144000Y-82037548D01*
X132636000Y-82037548D01*
X132636000Y-80454989D01*
X133144000Y-80454989D01*
X133144000Y-81497885D01*
X133148475Y-81513124D01*
X133149865Y-81514329D01*
X133157548Y-81516000D01*
X134208344Y-81516000D01*
X134221875Y-81512027D01*
X134223180Y-81502947D01*
X134181214Y-81335875D01*
X134177894Y-81326124D01*
X134092972Y-81130814D01*
X134088105Y-81121739D01*
X133972426Y-80942926D01*
X133966136Y-80934757D01*
X133822806Y-80777240D01*
X133815273Y-80770215D01*
X133648139Y-80638222D01*
X133639552Y-80632517D01*
X133453117Y-80529599D01*
X133443705Y-80525369D01*
X133242959Y-80454280D01*
X133232988Y-80451646D01*
X133161837Y-80438972D01*
X133148540Y-80440432D01*
X133144000Y-80454989D01*
X132636000Y-80454989D01*
X132636000Y-80453102D01*
X132632082Y-80439758D01*
X132617806Y-80437771D01*
X132579324Y-80443660D01*
X132569288Y-80446051D01*
X132366868Y-80512212D01*
X132357359Y-80516209D01*
X132168463Y-80614542D01*
X132159738Y-80620036D01*
X131989433Y-80747905D01*
X131981726Y-80754748D01*
X131834590Y-80908717D01*
X131828109Y-80916722D01*
X131723498Y-81070074D01*
X131668587Y-81115076D01*
X131598062Y-81123247D01*
X131534315Y-81091993D01*
X131513618Y-81067509D01*
X131432822Y-80942617D01*
X131432820Y-80942614D01*
X131430014Y-80938277D01*
X131279670Y-80773051D01*
X131275619Y-80769852D01*
X131275615Y-80769848D01*
X131108414Y-80637800D01*
X131108410Y-80637798D01*
X131104359Y-80634598D01*
X131068028Y-80614542D01*
X131052136Y-80605769D01*
X130908789Y-80526638D01*
X130903920Y-80524914D01*
X130903916Y-80524912D01*
X130703087Y-80453795D01*
X130703083Y-80453794D01*
X130698212Y-80452069D01*
X130693119Y-80451162D01*
X130693116Y-80451161D01*
X130483373Y-80413800D01*
X130483367Y-80413799D01*
X130478284Y-80412894D01*
X130404452Y-80411992D01*
X130260081Y-80410228D01*
X130260079Y-80410228D01*
X130254911Y-80410165D01*
X130034091Y-80443955D01*
X129821756Y-80513357D01*
X129623607Y-80616507D01*
X129619474Y-80619610D01*
X129619471Y-80619612D01*
X129492113Y-80715235D01*
X129444965Y-80750635D01*
X129290629Y-80912138D01*
X129183201Y-81069621D01*
X129128293Y-81114621D01*
X129057768Y-81122792D01*
X128994021Y-81091538D01*
X128973324Y-81067054D01*
X128892822Y-80942617D01*
X128892820Y-80942614D01*
X128890014Y-80938277D01*
X128739670Y-80773051D01*
X128735619Y-80769852D01*
X128735615Y-80769848D01*
X128568414Y-80637800D01*
X128568410Y-80637798D01*
X128564359Y-80634598D01*
X128528028Y-80614542D01*
X128512136Y-80605769D01*
X128368789Y-80526638D01*
X128363920Y-80524914D01*
X128363916Y-80524912D01*
X128163087Y-80453795D01*
X128163083Y-80453794D01*
X128158212Y-80452069D01*
X128153119Y-80451162D01*
X128153116Y-80451161D01*
X127943373Y-80413800D01*
X127943367Y-80413799D01*
X127938284Y-80412894D01*
X127864452Y-80411992D01*
X127720081Y-80410228D01*
X127720079Y-80410228D01*
X127714911Y-80410165D01*
X127494091Y-80443955D01*
X127281756Y-80513357D01*
X127083607Y-80616507D01*
X127079474Y-80619610D01*
X127079471Y-80619612D01*
X126952113Y-80715235D01*
X126904965Y-80750635D01*
X126901393Y-80754373D01*
X126822445Y-80836987D01*
X126760920Y-80872417D01*
X126690008Y-80868960D01*
X126632222Y-80827714D01*
X126610455Y-80785434D01*
X126610090Y-80784189D01*
X126599436Y-80747905D01*
X126589843Y-80715235D01*
X126589842Y-80715233D01*
X126587304Y-80706589D01*
X126543096Y-80637800D01*
X126513122Y-80591159D01*
X126513120Y-80591156D01*
X126508250Y-80583579D01*
X126501440Y-80577678D01*
X126404555Y-80493726D01*
X126404552Y-80493724D01*
X126397743Y-80487824D01*
X126264734Y-80427081D01*
X126120000Y-80406271D01*
X124420000Y-80406271D01*
X124411024Y-80406913D01*
X124353627Y-80411018D01*
X124353626Y-80411018D01*
X124346889Y-80411500D01*
X124267382Y-80434845D01*
X124215235Y-80450157D01*
X124215233Y-80450158D01*
X124206589Y-80452696D01*
X124199010Y-80457567D01*
X124091159Y-80526878D01*
X124091156Y-80526880D01*
X124083579Y-80531750D01*
X124077678Y-80538560D01*
X123993726Y-80635445D01*
X123993724Y-80635448D01*
X123987824Y-80642257D01*
X123927081Y-80775266D01*
X123906271Y-80920000D01*
X123906271Y-82620000D01*
X123911500Y-82693111D01*
X123932531Y-82764734D01*
X123947047Y-82814171D01*
X123952696Y-82833411D01*
X123957567Y-82840990D01*
X124026878Y-82948841D01*
X124026880Y-82948844D01*
X124031750Y-82956421D01*
X124038560Y-82962322D01*
X124135445Y-83046274D01*
X124135448Y-83046276D01*
X124142257Y-83052176D01*
X124275266Y-83112919D01*
X124420000Y-83133729D01*
X126120000Y-83133729D01*
X126156800Y-83131097D01*
X126186373Y-83128982D01*
X126186374Y-83128982D01*
X126193111Y-83128500D01*
X126272618Y-83105155D01*
X126324765Y-83089843D01*
X126324767Y-83089842D01*
X126333411Y-83087304D01*
X126406720Y-83040191D01*
X126448841Y-83013122D01*
X126448844Y-83013120D01*
X126456421Y-83008250D01*
X126484080Y-82976330D01*
X126546274Y-82904555D01*
X126546276Y-82904552D01*
X126552176Y-82897743D01*
X126558419Y-82884074D01*
X126596871Y-82799875D01*
X126612919Y-82764734D01*
X126613810Y-82758535D01*
X126651442Y-82699977D01*
X126716022Y-82670483D01*
X126786296Y-82680586D01*
X126829192Y-82712701D01*
X126856250Y-82743938D01*
X127028126Y-82886632D01*
X127221000Y-82999338D01*
X127225825Y-83001180D01*
X127225826Y-83001181D01*
X127267873Y-83017237D01*
X127429692Y-83079030D01*
X127434760Y-83080061D01*
X127434763Y-83080062D01*
X127529862Y-83099410D01*
X127648597Y-83123567D01*
X127653772Y-83123757D01*
X127653774Y-83123757D01*
X127866673Y-83131564D01*
X127866677Y-83131564D01*
X127871837Y-83131753D01*
X127876957Y-83131097D01*
X127876959Y-83131097D01*
X128088288Y-83104025D01*
X128088289Y-83104025D01*
X128093416Y-83103368D01*
X128098366Y-83101883D01*
X128302429Y-83040661D01*
X128302434Y-83040659D01*
X128307384Y-83039174D01*
X128507994Y-82940896D01*
X128689860Y-82811173D01*
X128848096Y-82653489D01*
X128870544Y-82622250D01*
X128978453Y-82472077D01*
X128979776Y-82473028D01*
X129026645Y-82429857D01*
X129096580Y-82417625D01*
X129162026Y-82445144D01*
X129189875Y-82476994D01*
X129249987Y-82575088D01*
X129396250Y-82743938D01*
X129545622Y-82867949D01*
X129545985Y-82868250D01*
X129585620Y-82927152D01*
X129591500Y-82965194D01*
X129591500Y-85845500D01*
X129571498Y-85913621D01*
X129517842Y-85960114D01*
X129465500Y-85971500D01*
X120351587Y-85971500D01*
X120283466Y-85951498D01*
X120246215Y-85914585D01*
X120194868Y-85836267D01*
X120194867Y-85836266D01*
X120190856Y-85830148D01*
X120185544Y-85825116D01*
X120185540Y-85825111D01*
X120064895Y-85710822D01*
X120029197Y-85649453D01*
X120032345Y-85578526D01*
X120073339Y-85520561D01*
X120082467Y-85513976D01*
X120088731Y-85509870D01*
X120088736Y-85509866D01*
X120094852Y-85505856D01*
X120216490Y-85377453D01*
X120305326Y-85224510D01*
X120309857Y-85209552D01*
X120354720Y-85061424D01*
X120354720Y-85061423D01*
X120356595Y-85055233D01*
X120357170Y-85048792D01*
X120363251Y-84980656D01*
X120363251Y-84980650D01*
X120363500Y-84977863D01*
X120363500Y-84200707D01*
X120354594Y-84124319D01*
X120349030Y-84076589D01*
X120349029Y-84076585D01*
X120348182Y-84069319D01*
X120344844Y-84060121D01*
X120290329Y-83909939D01*
X120290329Y-83909938D01*
X120287833Y-83903063D01*
X120243700Y-83835748D01*
X120194868Y-83761267D01*
X120194867Y-83761266D01*
X120190856Y-83755148D01*
X120062453Y-83633510D01*
X119909510Y-83544674D01*
X119902506Y-83542553D01*
X119902502Y-83542551D01*
X119746424Y-83495280D01*
X119746423Y-83495280D01*
X119740233Y-83493405D01*
X119733794Y-83492830D01*
X119733792Y-83492830D01*
X119665656Y-83486749D01*
X119665650Y-83486749D01*
X119662863Y-83486500D01*
X118610707Y-83486500D01*
X118540964Y-83494631D01*
X118486589Y-83500970D01*
X118486585Y-83500971D01*
X118479319Y-83501818D01*
X118472444Y-83504313D01*
X118472442Y-83504314D01*
X118319939Y-83559671D01*
X118313063Y-83562167D01*
X118306946Y-83566178D01*
X118306943Y-83566179D01*
X118204246Y-83633510D01*
X118165148Y-83659144D01*
X118043510Y-83787547D01*
X117954674Y-83940490D01*
X117952553Y-83947494D01*
X117952551Y-83947498D01*
X117913146Y-84077604D01*
X117903405Y-84109767D01*
X117902830Y-84116206D01*
X117902830Y-84116208D01*
X117897922Y-84171208D01*
X117896500Y-84187137D01*
X117896500Y-84964293D01*
X117900406Y-84997794D01*
X117907735Y-85060656D01*
X117911818Y-85095681D01*
X117914313Y-85102556D01*
X117914314Y-85102558D01*
X117958581Y-85224510D01*
X117972167Y-85261937D01*
X117976178Y-85268054D01*
X117976179Y-85268057D01*
X118047902Y-85377453D01*
X118069144Y-85409852D01*
X118074456Y-85414884D01*
X118074460Y-85414889D01*
X118195105Y-85529178D01*
X118230803Y-85590547D01*
X118227655Y-85661474D01*
X118186661Y-85719439D01*
X118177533Y-85726024D01*
X118171269Y-85730130D01*
X118171264Y-85730134D01*
X118165148Y-85734144D01*
X118043510Y-85862547D01*
X117954674Y-86015490D01*
X117903405Y-86184767D01*
X117902830Y-86191206D01*
X117902830Y-86191208D01*
X117897396Y-86252101D01*
X117896500Y-86262137D01*
X117896500Y-87039293D01*
X117911818Y-87170681D01*
X117914313Y-87177556D01*
X117914314Y-87177558D01*
X117967915Y-87325224D01*
X117972167Y-87336937D01*
X117976178Y-87343054D01*
X117976179Y-87343057D01*
X118065132Y-87478733D01*
X118069144Y-87484852D01*
X118197547Y-87606490D01*
X118215545Y-87616944D01*
X118308785Y-87671102D01*
X118357644Y-87722613D01*
X118371500Y-87780056D01*
X118371500Y-87813629D01*
X118351498Y-87881750D01*
X118334595Y-87902724D01*
X118292724Y-87944595D01*
X118230412Y-87978621D01*
X118203629Y-87981500D01*
X115604067Y-87981500D01*
X115535946Y-87961498D01*
X115489453Y-87907842D01*
X115479349Y-87837568D01*
X115508843Y-87772988D01*
X115561076Y-87737061D01*
X115704833Y-87684880D01*
X115717832Y-87678370D01*
X115853409Y-87589482D01*
X115864561Y-87580158D01*
X115976050Y-87462467D01*
X115984763Y-87450820D01*
X116066188Y-87310638D01*
X116071987Y-87297301D01*
X116119224Y-87141333D01*
X116121674Y-87128704D01*
X116127751Y-87060612D01*
X116128000Y-87055016D01*
X116128000Y-86922115D01*
X116123525Y-86906876D01*
X116122135Y-86905671D01*
X116114452Y-86904000D01*
X114792000Y-86904000D01*
X114723879Y-86883998D01*
X114677386Y-86830342D01*
X114666000Y-86778000D01*
X114666000Y-86522000D01*
X114686002Y-86453879D01*
X114739658Y-86407386D01*
X114792000Y-86396000D01*
X116109885Y-86396000D01*
X116125124Y-86391525D01*
X116126329Y-86390135D01*
X116128000Y-86382452D01*
X116128000Y-86259405D01*
X116127575Y-86252101D01*
X116113539Y-86131707D01*
X116110194Y-86117554D01*
X116054880Y-85965167D01*
X116048370Y-85952168D01*
X115959482Y-85816591D01*
X115950158Y-85805439D01*
X115884405Y-85743151D01*
X115848707Y-85681782D01*
X115851854Y-85610855D01*
X115879586Y-85565025D01*
X115976452Y-85462772D01*
X115976456Y-85462767D01*
X115981490Y-85457453D01*
X116070326Y-85304510D01*
X116076690Y-85283500D01*
X116119720Y-85141424D01*
X116119720Y-85141423D01*
X116121595Y-85135233D01*
X116126808Y-85076827D01*
X116128251Y-85060656D01*
X116128251Y-85060650D01*
X116128500Y-85057863D01*
X116128500Y-84255707D01*
X116114875Y-84138841D01*
X116114030Y-84131589D01*
X116114029Y-84131585D01*
X116113182Y-84124319D01*
X116106258Y-84105242D01*
X116052833Y-83958063D01*
X116055900Y-83956950D01*
X116045891Y-83901328D01*
X116073090Y-83835748D01*
X116131426Y-83795283D01*
X116144964Y-83791607D01*
X116252288Y-83768794D01*
X116258319Y-83766109D01*
X116420722Y-83693803D01*
X116420724Y-83693802D01*
X116426752Y-83691118D01*
X116581253Y-83578866D01*
X116585675Y-83573955D01*
X116704621Y-83441852D01*
X116704622Y-83441851D01*
X116709040Y-83436944D01*
X116804527Y-83271556D01*
X116863542Y-83089928D01*
X116864688Y-83079030D01*
X116882814Y-82906565D01*
X116883504Y-82900000D01*
X116870035Y-82771852D01*
X116864232Y-82716635D01*
X116864232Y-82716633D01*
X116863542Y-82710072D01*
X116804527Y-82528444D01*
X116772533Y-82473028D01*
X116747086Y-82428953D01*
X116709040Y-82363056D01*
X116697492Y-82350230D01*
X116585675Y-82226045D01*
X116585674Y-82226044D01*
X116581253Y-82221134D01*
X116426752Y-82108882D01*
X116420724Y-82106198D01*
X116420722Y-82106197D01*
X116258319Y-82033891D01*
X116258318Y-82033891D01*
X116252288Y-82031206D01*
X116158888Y-82011353D01*
X116071944Y-81992872D01*
X116071939Y-81992872D01*
X116065487Y-81991500D01*
X116009595Y-81991500D01*
X115941474Y-81971498D01*
X115920500Y-81954595D01*
X115803652Y-81837747D01*
X115796112Y-81829461D01*
X115792000Y-81822982D01*
X115742348Y-81776356D01*
X115739507Y-81773602D01*
X115719770Y-81753865D01*
X115716573Y-81751385D01*
X115707551Y-81743680D01*
X115681100Y-81718841D01*
X115675321Y-81713414D01*
X115668375Y-81709595D01*
X115668372Y-81709593D01*
X115657566Y-81703652D01*
X115641047Y-81692801D01*
X115640583Y-81692441D01*
X115625041Y-81680386D01*
X115617772Y-81677241D01*
X115617768Y-81677238D01*
X115584463Y-81662826D01*
X115573813Y-81657609D01*
X115535060Y-81636305D01*
X115515437Y-81631267D01*
X115496734Y-81624863D01*
X115485420Y-81619967D01*
X115485419Y-81619967D01*
X115478145Y-81616819D01*
X115470322Y-81615580D01*
X115470312Y-81615577D01*
X115434476Y-81609901D01*
X115422856Y-81607495D01*
X115387711Y-81598472D01*
X115387710Y-81598472D01*
X115380030Y-81596500D01*
X115359776Y-81596500D01*
X115340065Y-81594949D01*
X115327886Y-81593020D01*
X115320057Y-81591780D01*
X115312165Y-81592526D01*
X115276039Y-81595941D01*
X115264181Y-81596500D01*
X114418200Y-81596500D01*
X114350079Y-81576498D01*
X114330853Y-81560157D01*
X114330580Y-81560460D01*
X114325668Y-81556037D01*
X114321253Y-81551134D01*
X114272895Y-81516000D01*
X114172094Y-81442763D01*
X114172093Y-81442762D01*
X114166752Y-81438882D01*
X114160724Y-81436198D01*
X114160722Y-81436197D01*
X113998319Y-81363891D01*
X113998318Y-81363891D01*
X113992288Y-81361206D01*
X113873116Y-81335875D01*
X113811944Y-81322872D01*
X113811939Y-81322872D01*
X113805487Y-81321500D01*
X113614513Y-81321500D01*
X113608061Y-81322872D01*
X113608056Y-81322872D01*
X113546884Y-81335875D01*
X113427712Y-81361206D01*
X113421682Y-81363891D01*
X113421681Y-81363891D01*
X113259278Y-81436197D01*
X113259276Y-81436198D01*
X113253248Y-81438882D01*
X113247907Y-81442762D01*
X113247906Y-81442763D01*
X113203561Y-81474982D01*
X113136694Y-81498840D01*
X113067542Y-81482760D01*
X113018062Y-81431846D01*
X113003500Y-81373046D01*
X113003500Y-77555260D01*
X113023502Y-77487139D01*
X113077158Y-77440646D01*
X113094002Y-77434364D01*
X113113124Y-77428749D01*
X113114329Y-77427359D01*
X113116000Y-77419676D01*
X113116000Y-77194883D01*
X113127386Y-77142541D01*
X113159175Y-77072932D01*
X113162919Y-77064734D01*
X113183729Y-76920000D01*
X113183729Y-75220000D01*
X113556271Y-75220000D01*
X113556271Y-76920000D01*
X113561500Y-76993111D01*
X113582531Y-77064734D01*
X113602696Y-77133411D01*
X113602057Y-77133599D01*
X113611500Y-77177011D01*
X113611500Y-78042930D01*
X113610067Y-78061880D01*
X113606801Y-78083349D01*
X113607394Y-78090641D01*
X113607394Y-78090644D01*
X113611085Y-78136018D01*
X113611500Y-78146233D01*
X113611500Y-78154293D01*
X113611925Y-78157937D01*
X113614789Y-78182507D01*
X113615222Y-78186882D01*
X113617469Y-78214500D01*
X113621140Y-78259637D01*
X113623396Y-78266601D01*
X113624587Y-78272560D01*
X113625971Y-78278415D01*
X113626818Y-78285681D01*
X113651735Y-78354327D01*
X113653152Y-78358455D01*
X113675649Y-78427899D01*
X113679445Y-78434154D01*
X113681951Y-78439628D01*
X113684670Y-78445058D01*
X113687167Y-78451937D01*
X113691180Y-78458057D01*
X113691180Y-78458058D01*
X113727186Y-78512976D01*
X113729523Y-78516680D01*
X113767405Y-78579107D01*
X113771121Y-78583315D01*
X113771122Y-78583316D01*
X113774803Y-78587484D01*
X113774776Y-78587508D01*
X113777428Y-78590499D01*
X113780132Y-78593733D01*
X113784144Y-78599852D01*
X113789457Y-78604885D01*
X113840366Y-78653112D01*
X113842808Y-78655489D01*
X113879875Y-78692556D01*
X113910613Y-78742714D01*
X113965473Y-78911556D01*
X114060960Y-79076944D01*
X114188747Y-79218866D01*
X114343248Y-79331118D01*
X114349276Y-79333802D01*
X114349278Y-79333803D01*
X114511681Y-79406109D01*
X114517712Y-79408794D01*
X114611112Y-79428647D01*
X114698056Y-79447128D01*
X114698061Y-79447128D01*
X114704513Y-79448500D01*
X114895487Y-79448500D01*
X114901939Y-79447128D01*
X114901944Y-79447128D01*
X114988888Y-79428647D01*
X115082288Y-79408794D01*
X115088319Y-79406109D01*
X115250722Y-79333803D01*
X115250724Y-79333802D01*
X115256752Y-79331118D01*
X115411253Y-79218866D01*
X115539040Y-79076944D01*
X115634527Y-78911556D01*
X115693542Y-78729928D01*
X115713504Y-78540000D01*
X115693542Y-78350072D01*
X115634527Y-78168444D01*
X115621704Y-78146233D01*
X115542341Y-78008774D01*
X115539040Y-78003056D01*
X115411253Y-77861134D01*
X115256752Y-77748882D01*
X115203251Y-77725062D01*
X115149155Y-77679081D01*
X115128500Y-77609955D01*
X115128500Y-77559729D01*
X115148502Y-77491608D01*
X115202158Y-77445115D01*
X115254500Y-77433729D01*
X115670000Y-77433729D01*
X115701986Y-77431441D01*
X115736373Y-77428982D01*
X115736374Y-77428982D01*
X115743111Y-77428500D01*
X115829656Y-77403088D01*
X115900651Y-77403088D01*
X115916616Y-77409042D01*
X115917065Y-77409174D01*
X115925266Y-77412919D01*
X116070000Y-77433729D01*
X116670000Y-77433729D01*
X116701986Y-77431441D01*
X116736373Y-77428982D01*
X116736374Y-77428982D01*
X116743111Y-77428500D01*
X116829656Y-77403088D01*
X116900651Y-77403088D01*
X116916616Y-77409042D01*
X116917065Y-77409174D01*
X116925266Y-77412919D01*
X117070000Y-77433729D01*
X117670000Y-77433729D01*
X117701986Y-77431441D01*
X117736373Y-77428982D01*
X117736374Y-77428982D01*
X117743111Y-77428500D01*
X117829656Y-77403088D01*
X117900651Y-77403088D01*
X117916616Y-77409042D01*
X117917065Y-77409174D01*
X117925266Y-77412919D01*
X118070000Y-77433729D01*
X118670000Y-77433729D01*
X118701986Y-77431441D01*
X118736373Y-77428982D01*
X118736374Y-77428982D01*
X118743111Y-77428500D01*
X118829656Y-77403088D01*
X118874765Y-77389843D01*
X118874767Y-77389842D01*
X118883411Y-77387304D01*
X118922730Y-77362035D01*
X118998841Y-77313122D01*
X118998844Y-77313120D01*
X119006421Y-77308250D01*
X119052991Y-77254506D01*
X119056895Y-77250000D01*
X123906271Y-77250000D01*
X123906271Y-78950000D01*
X123911500Y-79023111D01*
X123952696Y-79163411D01*
X123977965Y-79202730D01*
X124026878Y-79278841D01*
X124026880Y-79278844D01*
X124031750Y-79286421D01*
X124038560Y-79292322D01*
X124135445Y-79376274D01*
X124135448Y-79376276D01*
X124142257Y-79382176D01*
X124275266Y-79442919D01*
X124420000Y-79463729D01*
X126120000Y-79463729D01*
X126151986Y-79461441D01*
X126186373Y-79458982D01*
X126186374Y-79458982D01*
X126193111Y-79458500D01*
X126272618Y-79435155D01*
X126324765Y-79419843D01*
X126324767Y-79419842D01*
X126333411Y-79417304D01*
X126397255Y-79376274D01*
X126448841Y-79343122D01*
X126448844Y-79343120D01*
X126456421Y-79338250D01*
X126501331Y-79286421D01*
X126546274Y-79234555D01*
X126546276Y-79234552D01*
X126552176Y-79227743D01*
X126612919Y-79094734D01*
X126633729Y-78950000D01*
X126633729Y-77250000D01*
X126628500Y-77176889D01*
X126587304Y-77036589D01*
X126545960Y-76972257D01*
X126513122Y-76921159D01*
X126513120Y-76921156D01*
X126508250Y-76913579D01*
X126501440Y-76907678D01*
X126404555Y-76823726D01*
X126404552Y-76823724D01*
X126397743Y-76817824D01*
X126264734Y-76757081D01*
X126257547Y-76756048D01*
X126198563Y-76718142D01*
X126169070Y-76653562D01*
X126179173Y-76583288D01*
X126204847Y-76546378D01*
X126304435Y-76447137D01*
X126308096Y-76443489D01*
X126367594Y-76360689D01*
X126435435Y-76266277D01*
X126438453Y-76262077D01*
X126537430Y-76061811D01*
X126602370Y-75848069D01*
X126631529Y-75626590D01*
X126633156Y-75560000D01*
X126614852Y-75337361D01*
X126560431Y-75120702D01*
X126471354Y-74915840D01*
X126368963Y-74757567D01*
X126352822Y-74732617D01*
X126352820Y-74732614D01*
X126350014Y-74728277D01*
X126199670Y-74563051D01*
X126195619Y-74559852D01*
X126195615Y-74559848D01*
X126028414Y-74427800D01*
X126028410Y-74427798D01*
X126024359Y-74424598D01*
X125983053Y-74401796D01*
X125933084Y-74351364D01*
X125918312Y-74281921D01*
X125943428Y-74215516D01*
X125970780Y-74188909D01*
X126014603Y-74157650D01*
X126149860Y-74061173D01*
X126308096Y-73903489D01*
X126367594Y-73820689D01*
X126435435Y-73726277D01*
X126438453Y-73722077D01*
X126537430Y-73521811D01*
X126602370Y-73308069D01*
X126631529Y-73086590D01*
X126633156Y-73020000D01*
X126614852Y-72797361D01*
X126560431Y-72580702D01*
X126471354Y-72375840D01*
X126369081Y-72217750D01*
X126352822Y-72192617D01*
X126352820Y-72192614D01*
X126350014Y-72188277D01*
X126199670Y-72023051D01*
X126195619Y-72019852D01*
X126195615Y-72019848D01*
X126028414Y-71887800D01*
X126028410Y-71887798D01*
X126024359Y-71884598D01*
X126011824Y-71877678D01*
X125982569Y-71861529D01*
X125932598Y-71811097D01*
X125917826Y-71741654D01*
X125942942Y-71675248D01*
X125970294Y-71648641D01*
X126145328Y-71523792D01*
X126153200Y-71517139D01*
X126304052Y-71366812D01*
X126310730Y-71358965D01*
X126435003Y-71186020D01*
X126440313Y-71177183D01*
X126534670Y-70986267D01*
X126538469Y-70976672D01*
X126600377Y-70772910D01*
X126602555Y-70762837D01*
X126603986Y-70751962D01*
X126601775Y-70737778D01*
X126588617Y-70734000D01*
X123953225Y-70734000D01*
X123939694Y-70737973D01*
X123938257Y-70747966D01*
X123968565Y-70882446D01*
X123971645Y-70892275D01*
X124051770Y-71089603D01*
X124056413Y-71098794D01*
X124167694Y-71280388D01*
X124173777Y-71288699D01*
X124313213Y-71449667D01*
X124320580Y-71456883D01*
X124484434Y-71592916D01*
X124492881Y-71598831D01*
X124561969Y-71639203D01*
X124610693Y-71690842D01*
X124623764Y-71760625D01*
X124597033Y-71826396D01*
X124556584Y-71859752D01*
X124543607Y-71866507D01*
X124539474Y-71869610D01*
X124539471Y-71869612D01*
X124369100Y-71997530D01*
X124364965Y-72000635D01*
X124351711Y-72014505D01*
X124231397Y-72140406D01*
X124210629Y-72162138D01*
X124084743Y-72346680D01*
X123990688Y-72549305D01*
X123930989Y-72764570D01*
X123907251Y-72986695D01*
X123907548Y-72991848D01*
X123907548Y-72991851D01*
X123913011Y-73086590D01*
X123920110Y-73209715D01*
X123921247Y-73214761D01*
X123921248Y-73214767D01*
X123941119Y-73302939D01*
X123969222Y-73427639D01*
X124053266Y-73634616D01*
X124169987Y-73825088D01*
X124316250Y-73993938D01*
X124488126Y-74136632D01*
X124558595Y-74177811D01*
X124561445Y-74179476D01*
X124610169Y-74231114D01*
X124623240Y-74300897D01*
X124596509Y-74366669D01*
X124556055Y-74400027D01*
X124543607Y-74406507D01*
X124539474Y-74409610D01*
X124539471Y-74409612D01*
X124515247Y-74427800D01*
X124364965Y-74540635D01*
X124210629Y-74702138D01*
X124207715Y-74706410D01*
X124207714Y-74706411D01*
X124177876Y-74750152D01*
X124084743Y-74886680D01*
X124038496Y-74986312D01*
X123993063Y-75084189D01*
X123990688Y-75089305D01*
X123930989Y-75304570D01*
X123907251Y-75526695D01*
X123907548Y-75531848D01*
X123907548Y-75531851D01*
X123913011Y-75626590D01*
X123920110Y-75749715D01*
X123921247Y-75754761D01*
X123921248Y-75754767D01*
X123941119Y-75842939D01*
X123969222Y-75967639D01*
X124053266Y-76174616D01*
X124169987Y-76365088D01*
X124316250Y-76533938D01*
X124326860Y-76542747D01*
X124366497Y-76601645D01*
X124367999Y-76672626D01*
X124330887Y-76733151D01*
X124281878Y-76760589D01*
X124206589Y-76782696D01*
X124199010Y-76787567D01*
X124091159Y-76856878D01*
X124091156Y-76856880D01*
X124083579Y-76861750D01*
X124077678Y-76868560D01*
X123993726Y-76965445D01*
X123993724Y-76965448D01*
X123987824Y-76972257D01*
X123927081Y-77105266D01*
X123906271Y-77250000D01*
X119056895Y-77250000D01*
X119096274Y-77204555D01*
X119096276Y-77204552D01*
X119102176Y-77197743D01*
X119131470Y-77133599D01*
X119159175Y-77072932D01*
X119162919Y-77064734D01*
X119183729Y-76920000D01*
X119183729Y-75321809D01*
X119203731Y-75253688D01*
X119257387Y-75207195D01*
X119327661Y-75197091D01*
X119392241Y-75226585D01*
X119415727Y-75253688D01*
X119476878Y-75348841D01*
X119476880Y-75348844D01*
X119481750Y-75356421D01*
X119488560Y-75362322D01*
X119585445Y-75446274D01*
X119585448Y-75446276D01*
X119592257Y-75452176D01*
X119725266Y-75512919D01*
X119870000Y-75533729D01*
X122370000Y-75533729D01*
X122401986Y-75531441D01*
X122436373Y-75528982D01*
X122436374Y-75528982D01*
X122443111Y-75528500D01*
X122522618Y-75505155D01*
X122574765Y-75489843D01*
X122574767Y-75489842D01*
X122583411Y-75487304D01*
X122647255Y-75446274D01*
X122698841Y-75413122D01*
X122698844Y-75413120D01*
X122706421Y-75408250D01*
X122751331Y-75356421D01*
X122796274Y-75304555D01*
X122796276Y-75304552D01*
X122802176Y-75297743D01*
X122862919Y-75164734D01*
X122883729Y-75020000D01*
X122883729Y-72220000D01*
X122878500Y-72146889D01*
X122841197Y-72019848D01*
X122839843Y-72015235D01*
X122839842Y-72015233D01*
X122837304Y-72006589D01*
X122795960Y-71942257D01*
X122763122Y-71891159D01*
X122763120Y-71891156D01*
X122758250Y-71883579D01*
X122730755Y-71859754D01*
X122654555Y-71793726D01*
X122654552Y-71793724D01*
X122647743Y-71787824D01*
X122635247Y-71782117D01*
X122570823Y-71752696D01*
X122514734Y-71727081D01*
X122370000Y-71706271D01*
X119870000Y-71706271D01*
X119861024Y-71706913D01*
X119803627Y-71711018D01*
X119803626Y-71711018D01*
X119796889Y-71711500D01*
X119717382Y-71734845D01*
X119665235Y-71750157D01*
X119665233Y-71750158D01*
X119656589Y-71752696D01*
X119619335Y-71776638D01*
X119541159Y-71826878D01*
X119541156Y-71826880D01*
X119533579Y-71831750D01*
X119527678Y-71838560D01*
X119443726Y-71935445D01*
X119443724Y-71935448D01*
X119437824Y-71942257D01*
X119377081Y-72075266D01*
X119356271Y-72220000D01*
X119356271Y-74918191D01*
X119336269Y-74986312D01*
X119282613Y-75032805D01*
X119212339Y-75042909D01*
X119147759Y-75013415D01*
X119124273Y-74986312D01*
X119063122Y-74891159D01*
X119063120Y-74891156D01*
X119058250Y-74883579D01*
X119051440Y-74877678D01*
X118954555Y-74793726D01*
X118954552Y-74793724D01*
X118947743Y-74787824D01*
X118814734Y-74727081D01*
X118670000Y-74706271D01*
X118070000Y-74706271D01*
X118054005Y-74707415D01*
X118003627Y-74711018D01*
X118003626Y-74711018D01*
X117996889Y-74711500D01*
X117910344Y-74736912D01*
X117839349Y-74736912D01*
X117823384Y-74730958D01*
X117822935Y-74730826D01*
X117814734Y-74727081D01*
X117670000Y-74706271D01*
X117070000Y-74706271D01*
X117054005Y-74707415D01*
X117003627Y-74711018D01*
X117003626Y-74711018D01*
X116996889Y-74711500D01*
X116910344Y-74736912D01*
X116839349Y-74736912D01*
X116823384Y-74730958D01*
X116822935Y-74730826D01*
X116814734Y-74727081D01*
X116670000Y-74706271D01*
X116070000Y-74706271D01*
X116054005Y-74707415D01*
X116003627Y-74711018D01*
X116003626Y-74711018D01*
X115996889Y-74711500D01*
X115910344Y-74736912D01*
X115839349Y-74736912D01*
X115823384Y-74730958D01*
X115822935Y-74730826D01*
X115814734Y-74727081D01*
X115670000Y-74706271D01*
X115070000Y-74706271D01*
X115054005Y-74707415D01*
X115003627Y-74711018D01*
X115003626Y-74711018D01*
X114996889Y-74711500D01*
X114910344Y-74736912D01*
X114839349Y-74736912D01*
X114823384Y-74730958D01*
X114822935Y-74730826D01*
X114814734Y-74727081D01*
X114670000Y-74706271D01*
X114070000Y-74706271D01*
X114054005Y-74707415D01*
X114003625Y-74711018D01*
X114003623Y-74711018D01*
X113996889Y-74711500D01*
X113909612Y-74737127D01*
X113838616Y-74737127D01*
X113823861Y-74731623D01*
X113805675Y-74726283D01*
X113674446Y-74707415D01*
X113665505Y-74706776D01*
X113642115Y-74706776D01*
X113626876Y-74711251D01*
X113625671Y-74712641D01*
X113624000Y-74720324D01*
X113624000Y-74945117D01*
X113612614Y-74997459D01*
X113600282Y-75024463D01*
X113577081Y-75075266D01*
X113575798Y-75084189D01*
X113575484Y-75086373D01*
X113556271Y-75220000D01*
X113183729Y-75220000D01*
X113178500Y-75146889D01*
X113137304Y-75006589D01*
X113132430Y-74999005D01*
X113128688Y-74990811D01*
X113131576Y-74989492D01*
X113116000Y-74936443D01*
X113116000Y-74724891D01*
X113111525Y-74709652D01*
X113110135Y-74708447D01*
X113102452Y-74706776D01*
X113072257Y-74706776D01*
X113067750Y-74706937D01*
X113003700Y-74711518D01*
X112990478Y-74713904D01*
X112911039Y-74737229D01*
X112840043Y-74737229D01*
X112823197Y-74730946D01*
X112814734Y-74727081D01*
X112670000Y-74706271D01*
X112070000Y-74706271D01*
X112054005Y-74707415D01*
X112003627Y-74711018D01*
X112003626Y-74711018D01*
X111996889Y-74711500D01*
X111910344Y-74736912D01*
X111839349Y-74736912D01*
X111823384Y-74730958D01*
X111822935Y-74730826D01*
X111814734Y-74727081D01*
X111670000Y-74706271D01*
X111070000Y-74706271D01*
X111054005Y-74707415D01*
X111003627Y-74711018D01*
X111003626Y-74711018D01*
X110996889Y-74711500D01*
X110910344Y-74736912D01*
X110839349Y-74736912D01*
X110823384Y-74730958D01*
X110822935Y-74730826D01*
X110814734Y-74727081D01*
X110670000Y-74706271D01*
X110070000Y-74706271D01*
X110054005Y-74707415D01*
X110003627Y-74711018D01*
X110003626Y-74711018D01*
X109996889Y-74711500D01*
X109910344Y-74736912D01*
X109839349Y-74736912D01*
X109823384Y-74730958D01*
X109822935Y-74730826D01*
X109814734Y-74727081D01*
X109670000Y-74706271D01*
X109070000Y-74706271D01*
X109054005Y-74707415D01*
X109003627Y-74711018D01*
X109003626Y-74711018D01*
X108996889Y-74711500D01*
X108910344Y-74736912D01*
X108839349Y-74736912D01*
X108823384Y-74730958D01*
X108822935Y-74730826D01*
X108814734Y-74727081D01*
X108670000Y-74706271D01*
X108070000Y-74706271D01*
X108054005Y-74707415D01*
X108003627Y-74711018D01*
X108003626Y-74711018D01*
X107996889Y-74711500D01*
X107910344Y-74736912D01*
X107839349Y-74736912D01*
X107823384Y-74730958D01*
X107822935Y-74730826D01*
X107814734Y-74727081D01*
X107670000Y-74706271D01*
X107070000Y-74706271D01*
X107054005Y-74707415D01*
X107003627Y-74711018D01*
X107003626Y-74711018D01*
X106996889Y-74711500D01*
X106917382Y-74734845D01*
X106865235Y-74750157D01*
X106865233Y-74750158D01*
X106856589Y-74752696D01*
X106849010Y-74757567D01*
X106741159Y-74826878D01*
X106741156Y-74826880D01*
X106733579Y-74831750D01*
X106727678Y-74838560D01*
X106643726Y-74935445D01*
X106643724Y-74935448D01*
X106637824Y-74942257D01*
X106634081Y-74950454D01*
X106634078Y-74950458D01*
X106624342Y-74971777D01*
X106577849Y-75025432D01*
X106509729Y-75045434D01*
X106441608Y-75025432D01*
X106395115Y-74971776D01*
X106383729Y-74919434D01*
X106383729Y-72220000D01*
X106378500Y-72146889D01*
X106341197Y-72019848D01*
X106339843Y-72015235D01*
X106339842Y-72015233D01*
X106337304Y-72006589D01*
X106295960Y-71942257D01*
X106263122Y-71891159D01*
X106263120Y-71891156D01*
X106258250Y-71883579D01*
X106230755Y-71859754D01*
X106154555Y-71793726D01*
X106154552Y-71793724D01*
X106147743Y-71787824D01*
X106135247Y-71782117D01*
X106070823Y-71752696D01*
X106014734Y-71727081D01*
X105870000Y-71706271D01*
X103370000Y-71706271D01*
X103361024Y-71706913D01*
X103303627Y-71711018D01*
X103303626Y-71711018D01*
X103296889Y-71711500D01*
X103217382Y-71734845D01*
X103165235Y-71750157D01*
X103165233Y-71750158D01*
X103156589Y-71752696D01*
X103119335Y-71776638D01*
X103041159Y-71826878D01*
X103041156Y-71826880D01*
X103033579Y-71831750D01*
X103027678Y-71838560D01*
X102943726Y-71935445D01*
X102943724Y-71935448D01*
X102937824Y-71942257D01*
X102877081Y-72075266D01*
X102856271Y-72220000D01*
X97768000Y-72220000D01*
X97768000Y-70480000D01*
X98346526Y-70480000D01*
X98366391Y-70732403D01*
X98367545Y-70737210D01*
X98367546Y-70737216D01*
X98402413Y-70882446D01*
X98425495Y-70978591D01*
X98427388Y-70983162D01*
X98427389Y-70983164D01*
X98511415Y-71186020D01*
X98522384Y-71212502D01*
X98654672Y-71428376D01*
X98819102Y-71620898D01*
X99011624Y-71785328D01*
X99227498Y-71917616D01*
X99232068Y-71919509D01*
X99232072Y-71919511D01*
X99436948Y-72004373D01*
X99461409Y-72014505D01*
X99546032Y-72034821D01*
X99702784Y-72072454D01*
X99702790Y-72072455D01*
X99707597Y-72073609D01*
X99960000Y-72093474D01*
X100212403Y-72073609D01*
X100217210Y-72072455D01*
X100217216Y-72072454D01*
X100373968Y-72034821D01*
X100458591Y-72014505D01*
X100483052Y-72004373D01*
X100687928Y-71919511D01*
X100687932Y-71919509D01*
X100692502Y-71917616D01*
X100908376Y-71785328D01*
X101100898Y-71620898D01*
X101265328Y-71428376D01*
X101397616Y-71212502D01*
X101408586Y-71186020D01*
X101492611Y-70983164D01*
X101492612Y-70983162D01*
X101494505Y-70978591D01*
X101517587Y-70882446D01*
X101552454Y-70737216D01*
X101552455Y-70737210D01*
X101553609Y-70732403D01*
X101573474Y-70480000D01*
X133076526Y-70480000D01*
X133096391Y-70732403D01*
X133097545Y-70737210D01*
X133097546Y-70737216D01*
X133132413Y-70882446D01*
X133155495Y-70978591D01*
X133157388Y-70983162D01*
X133157389Y-70983164D01*
X133241415Y-71186020D01*
X133252384Y-71212502D01*
X133384672Y-71428376D01*
X133549102Y-71620898D01*
X133741624Y-71785328D01*
X133957498Y-71917616D01*
X133962068Y-71919509D01*
X133962072Y-71919511D01*
X134166948Y-72004373D01*
X134191409Y-72014505D01*
X134276032Y-72034821D01*
X134432784Y-72072454D01*
X134432790Y-72072455D01*
X134437597Y-72073609D01*
X134690000Y-72093474D01*
X134942403Y-72073609D01*
X134947210Y-72072455D01*
X134947216Y-72072454D01*
X135103968Y-72034821D01*
X135188591Y-72014505D01*
X135213052Y-72004373D01*
X135417928Y-71919511D01*
X135417932Y-71919509D01*
X135422502Y-71917616D01*
X135638376Y-71785328D01*
X135830898Y-71620898D01*
X135995328Y-71428376D01*
X136127616Y-71212502D01*
X136138586Y-71186020D01*
X136222611Y-70983164D01*
X136222612Y-70983162D01*
X136224505Y-70978591D01*
X136247587Y-70882446D01*
X136282454Y-70737216D01*
X136282455Y-70737210D01*
X136283609Y-70732403D01*
X136303474Y-70480000D01*
X136283609Y-70227597D01*
X136282412Y-70222607D01*
X136232442Y-70014470D01*
X136224505Y-69981409D01*
X136162510Y-69831739D01*
X136129511Y-69752072D01*
X136129509Y-69752068D01*
X136127616Y-69747498D01*
X135995328Y-69531624D01*
X135830898Y-69339102D01*
X135638376Y-69174672D01*
X135422502Y-69042384D01*
X135417932Y-69040491D01*
X135417928Y-69040489D01*
X135193164Y-68947389D01*
X135193162Y-68947388D01*
X135188591Y-68945495D01*
X135103968Y-68925179D01*
X134947216Y-68887546D01*
X134947210Y-68887545D01*
X134942403Y-68886391D01*
X134690000Y-68866526D01*
X134437597Y-68886391D01*
X134432790Y-68887545D01*
X134432784Y-68887546D01*
X134276032Y-68925179D01*
X134191409Y-68945495D01*
X134186838Y-68947388D01*
X134186836Y-68947389D01*
X133962072Y-69040489D01*
X133962068Y-69040491D01*
X133957498Y-69042384D01*
X133741624Y-69174672D01*
X133549102Y-69339102D01*
X133384672Y-69531624D01*
X133252384Y-69747498D01*
X133250491Y-69752068D01*
X133250489Y-69752072D01*
X133217490Y-69831739D01*
X133155495Y-69981409D01*
X133147558Y-70014470D01*
X133097589Y-70222607D01*
X133096391Y-70227597D01*
X133076526Y-70480000D01*
X101573474Y-70480000D01*
X101553609Y-70227597D01*
X101552412Y-70222607D01*
X101550390Y-70214183D01*
X123934389Y-70214183D01*
X123935912Y-70222607D01*
X123948292Y-70226000D01*
X124997885Y-70226000D01*
X125013124Y-70221525D01*
X125014329Y-70220135D01*
X125016000Y-70212452D01*
X125016000Y-69164989D01*
X125524000Y-69164989D01*
X125524000Y-70207885D01*
X125528475Y-70223124D01*
X125529865Y-70224329D01*
X125537548Y-70226000D01*
X126588344Y-70226000D01*
X126601875Y-70222027D01*
X126603180Y-70212947D01*
X126561214Y-70045875D01*
X126557894Y-70036124D01*
X126472972Y-69840814D01*
X126468105Y-69831739D01*
X126352426Y-69652926D01*
X126346136Y-69644757D01*
X126202806Y-69487240D01*
X126195273Y-69480215D01*
X126028139Y-69348222D01*
X126019552Y-69342517D01*
X125833117Y-69239599D01*
X125823705Y-69235369D01*
X125622959Y-69164280D01*
X125612988Y-69161646D01*
X125541837Y-69148972D01*
X125528540Y-69150432D01*
X125524000Y-69164989D01*
X125016000Y-69164989D01*
X125016000Y-69163102D01*
X125012082Y-69149758D01*
X124997806Y-69147771D01*
X124959324Y-69153660D01*
X124949288Y-69156051D01*
X124746868Y-69222212D01*
X124737359Y-69226209D01*
X124548463Y-69324542D01*
X124539738Y-69330036D01*
X124369433Y-69457905D01*
X124361726Y-69464748D01*
X124214590Y-69618717D01*
X124208104Y-69626727D01*
X124088098Y-69802649D01*
X124083000Y-69811623D01*
X123993338Y-70004783D01*
X123989775Y-70014470D01*
X123934389Y-70214183D01*
X101550390Y-70214183D01*
X101502442Y-70014470D01*
X101494505Y-69981409D01*
X101432510Y-69831739D01*
X101399511Y-69752072D01*
X101399509Y-69752068D01*
X101397616Y-69747498D01*
X101265328Y-69531624D01*
X101100898Y-69339102D01*
X100908376Y-69174672D01*
X100692502Y-69042384D01*
X100687932Y-69040491D01*
X100687928Y-69040489D01*
X100463164Y-68947389D01*
X100463162Y-68947388D01*
X100458591Y-68945495D01*
X100373968Y-68925179D01*
X100217216Y-68887546D01*
X100217210Y-68887545D01*
X100212403Y-68886391D01*
X99960000Y-68866526D01*
X99707597Y-68886391D01*
X99702790Y-68887545D01*
X99702784Y-68887546D01*
X99546032Y-68925179D01*
X99461409Y-68945495D01*
X99456838Y-68947388D01*
X99456836Y-68947389D01*
X99232072Y-69040489D01*
X99232068Y-69040491D01*
X99227498Y-69042384D01*
X99011624Y-69174672D01*
X98819102Y-69339102D01*
X98654672Y-69531624D01*
X98522384Y-69747498D01*
X98520491Y-69752068D01*
X98520489Y-69752072D01*
X98487490Y-69831739D01*
X98425495Y-69981409D01*
X98417558Y-70014470D01*
X98367589Y-70222607D01*
X98366391Y-70227597D01*
X98346526Y-70480000D01*
X97768000Y-70480000D01*
X97768000Y-68384000D01*
X97788002Y-68315879D01*
X97841658Y-68269386D01*
X97894000Y-68258000D01*
X136706000Y-68258000D01*
X136774121Y-68278002D01*
G37*
%TD.AperFunction*%
%TD*%
M02*
